<?xml version="1.0" encoding="UTF-8"?>
<svg width="306px" height="305px" viewBox="0 0 306 305" version="1.1" xmlns="http://www.w3.org/2000/svg" xmlns:xlink="http://www.w3.org/1999/xlink">
    <!-- Generator: sketchtool 40 (33762) - http://www.bohemiancoding.com/sketch -->
    <title>F352BFC7-056C-4C08-B826-07AA265CD8F0</title>
    <desc>Created with sketchtool.</desc>
    <defs>
        <filter x="-50%" y="-50%" width="200%" height="200%" filterUnits="objectBoundingBox" id="filter-1">
            <feOffset dx="0" dy="0" in="SourceAlpha" result="shadowOffsetOuter1"></feOffset>
            <feGaussianBlur stdDeviation="15" in="shadowOffsetOuter1" result="shadowBlurOuter1"></feGaussianBlur>
            <feColorMatrix values="0 0 0 0 0   0 0 0 0 0   0 0 0 0 0  0 0 0 0.203691123 0" type="matrix" in="shadowBlurOuter1" result="shadowMatrixOuter1"></feColorMatrix>
            <feMerge>
                <feMergeNode in="shadowMatrixOuter1"></feMergeNode>
                <feMergeNode in="SourceGraphic"></feMergeNode>
            </feMerge>
        </filter>
    </defs>
    <g id="Landing-Page" stroke="none" stroke-width="1" fill="none" fill-rule="evenodd">
        <g id="01_Landing_Page_Desktop" transform="translate(-163.000000, -1742.000000)">
            <g id="How-it-Works" transform="translate(60.000000, 985.000000)">
                <g id="How-to-Win,-Earning-Points" transform="translate(132.000000, 629.000000)">
                    <g id="Cross-Hair_Logo" filter="url(#filter-1)" transform="translate(0.000000, 156.000000)">
                        <g id="Group-3" transform="translate(0.000000, 0.429561)" fill="#3949AB">
                            <path d="M133.522962,67.7599688 C133.522962,73.9137902 133.522359,79.5427268 133.522962,85.1716635 C133.523566,93.9975706 133.438498,102.825288 133.632162,111.646368 C133.657502,112.801115 135.103046,114.906084 135.913299,114.916944 C150.646875,115.116641 165.384071,115.062343 180.10015,115.062343 C180.387932,109.220436 177.728516,102.149574 170.500189,90.0506785 C172.622654,88.4126761 175.222342,86.6208281 177.562604,84.5375785 C179.818402,82.5291402 181.806328,80.2196472 184.81627,77.1071408 C188.252154,83.3780055 191.827403,88.8639563 194.342024,94.7987741 C196.627987,100.193021 198.023457,106.018035 199.285594,111.769445 C199.861157,114.393869 200.805949,115.13836 203.313933,115.121468 C215.310869,115.039417 227.30901,115.030367 239.305342,115.142584 C243.632323,115.183006 247.060364,118.049963 248.104703,121.979359 C249.077852,125.643899 247.613604,130.143428 244.169878,132.068609 C242.25073,133.141908 239.751796,133.569056 237.505048,133.599221 C226.337069,133.74824 215.165469,133.743414 203.996887,133.617924 C201.046673,133.584742 199.805652,134.231496 199.218626,137.540684 C197.055135,149.731283 192.389694,160.927015 184.191838,171.228029 C180.11463,166.990942 176.186441,163.130928 172.597315,158.977701 C171.927634,158.203044 172.250408,156.103505 172.746937,154.869121 C175.092629,149.034453 177.69473,143.302953 180.106787,137.493625 C180.502562,136.539783 180.404222,135.380813 180.568927,134.035419 C179.260938,133.894846 178.212375,133.686099 177.163812,133.684289 C163.925253,133.661966 150.686694,133.667396 137.448135,133.671619 C135.524161,133.672223 133.495813,133.325316 133.508483,136.394384 C133.569418,150.994626 133.535632,165.594869 133.535632,180.668112 C141.252041,179.760122 148.004352,177.30342 154.058023,173.216558 C156.642628,171.471166 158.112909,171.576746 160.232357,173.829527 C163.601876,177.411413 167.371393,180.618037 171.221151,184.216212 C160.744572,192.656601 149.535567,197.287653 137.314802,199.356423 C133.912704,199.93259 133.457804,201.367878 133.48073,204.223372 C133.574244,215.943988 133.519342,227.665811 133.48978,239.387031 C133.47892,243.831055 130.999895,246.572523 127.051193,248.04039 C123.445175,249.380354 118.973398,248.123044 116.836453,244.676301 C115.621978,242.716731 115.054258,240.067571 115.015646,237.715846 C114.833445,226.54847 114.870247,215.376268 114.975827,204.207685 C115.002976,201.338919 114.522134,199.967582 111.120639,199.392019 C98.8841875,197.322042 87.7204315,192.548004 77.3379695,184.27956 C81.5678167,180.240964 85.4531706,176.354404 89.5846774,172.750195 C90.3273592,172.102837 92.2573665,172.209624 93.3463515,172.665731 C99.0289833,175.048225 104.596382,177.704625 110.256087,180.146244 C111.454273,180.662682 112.869048,180.677765 114.453356,180.974596 C114.64702,179.723319 114.907652,178.819552 114.909462,177.915785 C114.936612,164.401511 114.913686,150.887236 114.947471,137.372962 C114.952901,135.26015 114.88714,133.614908 111.986397,133.636627 C97.7837394,133.742207 83.5804783,133.710231 69.3772172,133.745827 C68.994715,133.747034 68.612816,133.967244 67.9425322,134.174785 C69.0393603,142.665852 72.3907797,150.217556 77.0719072,157.062777 C72.5011865,161.448883 68.062592,165.708896 63.4273165,170.157747 C58.0282432,163.692011 54.1446993,155.594306 51.4412411,146.888459 C50.5048949,143.874293 49.4545221,140.788333 49.2493947,137.683066 C49.0080683,134.030592 47.2409563,133.578709 44.174302,133.613701 C32.5918448,133.74643 21.0069743,133.618527 9.42391383,133.674636 C2.46044259,133.707818 -1.60892264,128.086725 0.605246434,120.78962 C1.86315993,116.643633 5.4040205,115.056309 9.71109216,115.074409 C21.1565967,115.121468 32.6045144,114.968829 44.0470023,115.155253 C47.4080748,115.210155 48.6726247,114.375769 49.3217926,110.805346 C51.5100191,98.7595424 56.2128659,87.7140363 64.2653222,77.5885869 C68.144643,81.6060669 71.669214,85.476338 75.4501943,89.0775301 C77.2764313,90.8168896 76.8299776,91.965603 75.8447628,93.9818844 C73.0870062,99.6277139 70.7449342,105.478671 68.3383073,111.290412 C67.9437388,112.244254 68.0523356,113.406241 67.8568613,115.082855 L73.3953006,115.082855 C85.9442697,115.082855 98.4932388,115.096128 111.042208,115.064756 C112.729682,115.061136 114.908256,115.61136 114.909462,112.737767 C114.916099,97.9999678 114.912479,83.2621689 114.912479,68.06223 C107.191243,68.9937496 100.413593,71.4275257 94.3683686,75.5397263 C91.7391182,77.3285578 90.2724574,77.1348934 88.2133405,74.885732 C84.8945002,71.2604072 81.2432328,67.9397569 77.5123278,64.2746133 C87.6226943,56.1811315 98.6784568,51.5193101 110.760459,49.4680363 C114.456372,48.8405879 115.035555,47.3226453 114.995737,44.0894758 C114.853354,32.5076219 114.884123,20.9221481 115.029522,9.34089757 C115.085027,4.91859258 117.911562,1.54786708 121.802949,0.51318044 C125.836719,-0.558911779 130.246354,0.935501516 132.148609,4.58013241 C133.111501,6.42446888 133.440911,8.77619396 133.464441,10.9046922 C133.587517,22.211434 133.597773,33.5211925 133.47168,44.827331 C133.440308,47.6574855 134.116022,48.7905127 137.209825,49.3135875 C149.463773,51.387184 160.611239,56.1865613 171.206069,64.5008567 C166.889344,68.5792717 162.902633,72.5243538 158.663133,76.1744146 C157.963286,76.7771271 156.013369,76.4181542 154.877929,75.9415347 C149.195297,73.554214 143.613419,70.9267735 137.941044,68.5135103 C136.753718,68.0085349 135.333513,68.0501637 133.522962,67.7599688" id="Fill-1"></path>
                        </g>
                        <g id="Group-6" transform="translate(123.679744, 0.429561)" fill="#303F9F">
                            <path d="M9.84321833,67.7599688 C9.84321833,73.9137902 9.84261501,79.5427268 9.84321833,85.1716635 C9.84382164,93.9975706 9.75875411,102.825288 9.95241849,111.646368 C9.97775776,112.801115 11.4233025,114.906084 12.2335556,114.916944 C26.9671314,115.116641 41.704327,115.062343 56.4204066,115.062343 C56.7081882,109.220436 54.0487721,102.149574 46.8204452,90.0506785 C48.9429102,88.4126761 51.5425981,86.6208281 53.8828602,84.5375785 C56.1386581,82.5291402 58.1265837,80.2196472 61.1365263,77.1071408 C64.57241,83.3780055 68.1476595,88.8639563 70.6622799,94.7987741 C72.9482435,100.193021 74.343713,106.018035 75.6058498,111.769445 C76.181413,114.393869 77.1262056,115.13836 79.6341895,115.121468 C91.6311247,115.039417 103.629266,115.030367 115.625598,115.142584 C119.952579,115.183006 123.38062,118.049963 124.42496,121.979359 C125.398108,125.643899 123.93386,130.143428 120.490134,132.068609 C118.570986,133.141908 116.072052,133.569056 113.825304,133.599221 C102.657325,133.74824 91.4857255,133.743414 80.317143,133.617924 C77.3669286,133.584742 76.125908,134.231496 75.5388817,137.540684 C73.3753911,149.731283 68.7099499,160.927015 60.5120945,171.228029 C56.4348861,166.990942 52.5066968,163.130928 48.917571,158.977701 C48.2478904,158.203044 48.5706644,156.103505 49.0671933,154.869121 C51.4128852,149.034453 54.0149864,143.302953 56.427043,137.493625 C56.8228182,136.539783 56.7244777,135.380813 56.8891829,134.035419 C55.5811942,133.894846 54.5326313,133.686099 53.4840684,133.684289 C40.2455093,133.661966 27.0069502,133.667396 13.7683911,133.671619 C11.8444169,133.672223 9.81606912,133.325316 9.82873875,136.394384 C9.88967365,150.994626 9.85588796,165.594869 9.85588796,180.668112 C17.5722973,179.760122 24.324608,177.30342 30.378279,173.216558 C32.962884,171.471166 34.4331647,171.576746 36.5526132,173.829527 C39.922132,177.411413 43.6916493,180.618037 47.5414076,184.216212 C37.0648283,192.656601 25.8558236,197.287653 13.6350583,199.356423 C10.2329604,199.93259 9.77806022,201.367878 9.80098622,204.223372 C9.89450017,215.943988 9.83959843,227.665811 9.81003596,239.387031 C9.79917627,243.831055 0.399515738,248.565878 0.399515738,248.565878 L0.718669809,0.173513631 C0.718669809,0.173513631 7.87942532,3.45012187 8.46886488,4.58013241 C9.43175694,6.42446888 9.76116738,8.77619396 9.78469669,10.9046922 C9.90777312,22.211434 9.91802949,33.5211925 9.79193648,44.827331 C9.76056406,47.6574855 10.4362778,48.7905127 13.5300813,49.3135875 C25.784029,51.387184 36.9314955,56.1865613 47.5263247,64.5008567 C43.2096,68.5792717 39.222889,72.5243538 34.9833887,76.1744146 C34.2835423,76.7771271 32.3336256,76.4181542 31.1981852,75.9415347 C25.5155535,73.554214 19.9336755,70.9267735 14.2613001,68.5135103 C13.0739746,68.0085349 11.6537691,68.0501637 9.84321833,67.7599688" id="Fill-4"></path>
                        </g>
                        <g id="Group-9" transform="translate(0.000000, 0.429561)" fill="#0C0F1C">
                            <path d="M124.398534,0.173573962 C123.535189,0.173573962 122.659778,0.285790706 121.80307,0.513240771 C117.911079,1.54792741 115.085148,4.91865292 115.029643,9.3409579 C114.884244,20.9222085 114.852871,32.5076822 114.995857,44.0895361 C115.035676,47.3227056 114.456493,48.8406482 110.76058,49.4680967 C98.6785775,51.5193705 87.622815,56.1811918 77.5118451,64.2746736 C81.2433535,67.9398172 84.8946208,71.2604675 88.2134612,74.8857923 C89.3513148,76.1286229 90.3081737,76.7440051 91.3796626,76.7440051 C92.2478341,76.7440051 93.1920234,76.3403868 94.3684892,75.5397867 C100.41311,71.427586 107.191364,68.99381 114.9126,68.0622903 C114.9126,83.2622292 114.91622,98.0000282 114.909583,112.737827 C114.908376,114.821077 113.763283,115.104635 112.490287,115.104635 C112.01427,115.104635 111.520155,115.064816 111.061635,115.064816 L111.041725,115.064816 C104.277348,115.081709 97.5141779,115.085932 90.7491976,115.085932 C85.164303,115.085932 79.5794084,115.082916 73.9945138,115.082916 L73.3948179,115.082916 L71.6458053,115.082916 L67.856982,115.082916 C68.051853,113.406301 67.9438595,112.244315 68.338428,111.290472 C70.7450548,105.478731 73.0871268,99.6271709 75.8448835,93.9819448 C76.8300982,91.9656633 77.2765519,90.81695 75.4503149,89.0775904 C71.6693347,85.4763983 68.1447636,81.6061273 64.2654429,77.5886472 C56.2129866,87.7140967 51.5101397,98.7596028 49.3213099,110.805407 C48.6920515,114.269043 47.4830066,115.157727 44.3427477,115.157727 C44.2462172,115.157727 44.1472734,115.157124 44.047123,115.155314 C39.4003845,115.079296 34.7542494,115.059386 30.1069076,115.059386 C24.9932026,115.059386 19.8776878,115.083519 14.7639828,115.083519 C13.0795251,115.083519 11.3950673,115.081106 9.71060951,115.073866 L9.64002156,115.073866 C5.36492563,115.073866 1.8560408,116.66662 0.605367098,120.78968 C-1.6021655,128.065669 2.43582731,133.674696 9.36189296,133.674696 L9.42403449,133.674696 C11.7474037,133.663233 14.070773,133.659613 16.3947455,133.659613 C21.3244391,133.659613 26.2541327,133.676506 31.1844296,133.676506 C35.513824,133.676506 39.8450283,133.663233 44.1744226,133.613761 C44.2757797,133.612555 44.3753268,133.611951 44.4736673,133.611951 C47.3563103,133.611951 49.0160321,134.151316 49.2495153,137.683126 C49.4546427,140.788393 50.5050156,143.874353 51.4413617,146.888519 C54.1448199,155.594367 58.0283639,163.692072 63.4274372,170.157807 C68.0627127,165.708956 72.5013072,161.448943 77.0720279,157.062837 C72.3909004,150.217616 69.0388777,142.665309 67.9426528,134.174845 C68.6129367,133.967304 68.9948356,133.747094 69.3773378,133.745887 C83.580599,133.710292 97.7838601,133.742268 111.985915,133.636687 C112.005221,133.636687 112.023923,133.636084 112.042626,133.636084 C114.887864,133.636687 114.953022,135.273483 114.947592,137.373022 C114.913806,150.886693 114.936732,164.401571 114.90898,177.915845 C114.90717,178.819613 114.647141,179.72338 114.452873,180.974657 C112.869169,180.677825 111.454393,180.662742 110.256208,180.145701 C104.596502,177.704685 99.029104,175.048285 93.3458689,172.665791 C92.7962482,172.435325 92.031847,172.294149 91.3139012,172.294149 C90.6110383,172.294149 89.9522174,172.429895 89.5847981,172.750255 C85.4532913,176.354464 81.5679374,180.241025 77.3380901,184.279621 C87.7205522,192.548064 98.8837048,197.322102 111.12076,199.392079 C114.522254,199.967642 115.003097,201.338979 114.975948,204.207746 C114.870368,215.376328 114.833565,226.548531 115.015767,237.715907 C115.054379,240.067632 115.622099,242.716791 116.836574,244.676361 C118.410625,247.215114 121.251036,248.565938 124.07938,248.565938 C125.091141,248.565938 126.101092,248.39339 127.051314,248.04045 C131.000016,246.572583 133.478437,243.831116 133.4899,239.387091 C133.519463,227.665872 133.574365,215.944048 133.480851,204.223432 C133.457925,201.367938 133.912825,199.93265 137.314923,199.356483 C149.535085,197.287713 160.744693,192.656661 171.220669,184.215669 C167.371514,180.618097 163.601997,177.411473 160.231874,173.829587 C159.077128,172.601236 158.114839,172.011797 157.05964,172.011797 C156.178799,172.011797 155.233403,172.422655 154.058144,173.216619 C148.004473,177.30348 141.252162,179.760182 133.535752,180.668172 C133.535752,165.59493 133.569538,150.994687 133.508603,136.394444 C133.498347,133.889477 134.846758,133.660217 136.389436,133.660217 C136.735136,133.660217 137.091093,133.67168 137.442826,133.67168 L137.448256,133.67168 C143.04763,133.66987 148.647004,133.66806 154.246378,133.66806 C161.885563,133.66806 169.524748,133.67168 177.163933,133.684349 C178.212496,133.686159 179.260455,133.894906 180.568444,134.035479 C180.404342,135.380873 180.502683,136.539843 180.106908,137.493685 C177.694851,143.303013 175.092146,149.03391 172.747058,154.869181 C172.250529,156.103565 171.927755,158.203104 172.596832,158.977762 C176.186561,163.130988 180.114751,166.990399 184.191959,171.22809 C192.389814,160.927075 197.055256,149.731343 199.218746,137.540744 C199.791896,134.309384 200.988272,133.616778 203.791277,133.616778 C203.858848,133.616778 203.927626,133.617381 203.996404,133.617984 C209.43409,133.678919 214.870569,133.711498 220.309461,133.711498 C226.040961,133.711498 231.774271,133.675299 237.505168,133.599282 C239.751917,133.569116 242.250851,133.141968 244.169998,132.068669 C247.613122,130.143489 249.077973,125.643959 248.104824,121.979419 C247.060484,118.050023 243.631841,115.183066 239.305463,115.142644 C233.121476,115.084726 226.937488,115.058783 220.752898,115.058783 C214.93995,115.058783 209.126399,115.081709 203.314054,115.121528 L203.230796,115.121528 C200.784954,115.121528 199.854641,114.364367 199.285714,111.769505 C198.023578,106.018095 196.628108,100.193081 194.342144,94.7988344 C191.826921,88.8640166 188.252275,83.3780658 184.816391,77.1072012 C181.806448,80.2197075 179.818523,82.5292005 177.562121,84.5376389 C175.222463,86.6208884 172.622171,88.4127364 170.499706,90.0507389 C177.728637,102.149634 180.387449,109.220496 180.100271,115.062403 C174.935284,115.062403 169.768488,115.069039 164.599881,115.069039 C155.040945,115.069039 145.476579,115.046717 135.91342,114.917004 C135.103167,114.906144 133.657622,112.801175 133.632283,111.646429 C133.438619,102.825348 133.523686,93.997631 133.523083,85.1717238 C133.52248,79.5427872 133.523083,73.9138505 133.523083,67.7600291 C135.333634,68.050224 136.753236,68.0085952 137.941165,68.5135706 C143.61354,70.9268339 149.195418,73.5542743 154.87805,75.941595 C155.587549,76.239633 156.614996,76.4912157 157.457225,76.4912157 C157.9622,76.4912157 158.400208,76.4007183 158.66265,76.1744749 C162.902754,72.5244142 166.889464,68.579332 171.205586,64.500917 C160.61136,56.1866217 149.463894,51.3872443 137.209946,49.3136478 C134.115539,48.790573 133.440429,47.6575459 133.471801,44.8273913 C133.597291,33.5206495 133.587638,22.2114944 133.464561,10.9047525 C133.441032,8.77625429 133.111621,6.42452921 132.148729,4.58019274 C130.650696,1.70961605 127.598521,0.173573962 124.398534,0.173573962 M124.398534,4.39678473 C125.795814,4.39678473 127.582232,4.95847176 128.405155,6.53433269 C128.924006,7.52859717 129.221441,9.09721831 129.24135,10.9512078 C129.367443,22.5065158 129.369857,33.8880688 129.24859,44.7803327 C129.192482,49.8668884 131.498355,52.6306782 136.505876,53.4777336 C146.771295,55.2146799 156.021937,58.9685109 164.648146,64.9135851 C161.994763,67.4493215 159.457217,69.8637914 156.844859,72.1588048 C156.727816,72.1268291 156.611979,72.0888202 156.513639,72.0477947 C153.555581,70.8049641 150.553482,69.4643963 147.65093,68.1678706 C145.022886,66.9944213 142.304948,65.7805499 139.59425,64.6276134 C138.226533,64.0454136 136.927594,63.9078576 135.671491,63.7739215 C135.167118,63.7208297 134.690499,63.6701512 134.190953,63.5899101 L129.299872,62.8062029 L129.299872,67.7600291 L129.299872,73.496356 L129.299872,85.1723271 C129.299872,87.2531634 129.295649,89.334603 129.290822,91.4160426 C129.276343,98.0700128 129.260657,104.950226 129.409676,111.739339 C129.47423,114.685331 132.209664,119.090743 135.856105,119.139611 C145.758931,119.274151 155.523598,119.29225 164.599881,119.29225 C167.185693,119.29225 169.770901,119.29044 172.355506,119.289234 C174.937698,119.287424 177.519286,119.285614 180.100271,119.285614 L184.120768,119.285614 L184.318052,115.269944 C184.626346,109.011749 182.277638,102.076633 176.046592,91.1686831 C177.445681,90.1195169 178.943715,88.9623571 180.370557,87.6923773 C181.607957,86.5907226 182.745208,85.4341662 183.954253,84.1605665 C184.088792,84.3934464 184.222728,84.6251197 184.356061,84.8561896 C186.651074,88.8326442 188.818788,92.5888885 190.453774,96.4464899 C192.64743,101.62294 193.981362,107.301348 195.160241,112.674479 C196.145455,117.163149 198.784962,119.344739 203.230796,119.344739 L203.343013,119.344739 C209.473305,119.302507 215.168003,119.281994 220.752898,119.281994 C227.126326,119.281994 233.354959,119.31035 239.266247,119.365251 C241.564277,119.386971 243.43154,120.838549 244.022789,123.064181 C244.555517,125.068999 243.679503,127.504585 242.109071,128.38241 C241.02431,128.988742 239.325976,129.351335 237.44906,129.376071 C231.872009,129.450279 226.105516,129.488288 220.309461,129.488288 C215.026827,129.488288 209.55415,129.456915 204.044066,129.395377 L203.791277,129.393567 C198.73187,129.393567 195.957221,131.747705 195.060694,136.802889 C193.204894,147.259559 189.496312,156.439612 183.763605,164.726758 C181.209769,162.108971 178.781423,159.610037 176.501492,157.027845 C176.540104,156.829354 176.596816,156.615177 176.664991,156.444439 C177.990476,153.147921 179.433004,149.805551 180.828473,146.573588 C181.879449,144.137399 182.966625,141.618556 184.006741,139.112985 C184.544295,137.819476 184.619107,136.570009 184.679438,135.566091 C184.701158,135.205912 184.72167,134.865038 184.760886,134.548297 L185.280944,130.293714 L181.019121,129.836401 C180.623346,129.794169 180.25291,129.744094 179.900574,129.697035 C179.039039,129.581802 178.147941,129.462948 177.170569,129.461138 C169.529575,129.448469 161.887976,129.444849 154.246378,129.444849 C149.085615,129.444849 143.925454,129.446659 138.765294,129.447865 L137.442826,129.448469 C137.28898,129.448469 137.134531,129.446056 136.980083,129.443642 C136.782195,129.440022 136.584307,129.437006 136.389436,129.437006 L136.376163,129.437006 C135.439214,129.437006 132.992768,129.446056 131.150845,131.295219 C129.904395,132.547702 129.276343,134.268962 129.285393,136.41194 C129.330038,147.144929 129.324005,157.667963 129.317368,168.808793 C129.314955,172.734569 129.312542,176.685081 129.312542,180.668172 L129.312542,185.417474 L134.029265,184.862424 C142.445521,183.872383 149.769775,181.207537 156.421332,176.716454 C156.59931,176.596394 156.747725,176.503483 156.868992,176.432292 C156.95044,176.51012 157.046367,176.606047 157.15617,176.72309 C159.530218,179.24676 162.00683,181.513418 164.622204,183.892895 C156.284379,189.711273 147.074763,193.421062 136.61025,195.192397 C129.194895,196.447898 129.240144,202.12148 129.25764,204.257218 C129.337278,214.219169 129.308319,224.360304 129.280566,234.167806 L129.26669,239.376835 C129.262467,241.110161 128.812393,242.879687 125.579827,244.081492 C125.113464,244.255247 124.608488,244.342728 124.07938,244.342728 C122.549371,244.342728 121.149679,243.618145 120.426303,242.451333 C119.72344,241.317702 119.267937,239.476986 119.238374,237.646525 C119.038677,225.428173 119.112281,213.379353 119.199159,204.247565 C119.230531,200.916658 118.500519,196.3574 111.825433,195.227993 C101.500286,193.481997 92.3051491,189.754109 83.8526944,183.871176 C86.5084907,181.30648 89.0430204,178.867878 91.6565846,176.552352 C91.6915769,176.558988 91.7199328,176.566228 91.7398422,176.571658 C94.857175,177.879647 98.0173433,179.305282 101.073138,180.684462 C103.523204,181.79034 106.05713,182.934227 108.583817,184.023815 C109.923781,184.601791 111.234786,184.777356 112.39074,184.931805 C112.84021,184.992137 113.264341,185.048848 113.675199,185.126073 L117.958741,185.928483 L118.626612,181.621411 C118.68091,181.269678 118.746068,180.928805 118.808813,180.599394 C118.966882,179.772248 119.130381,178.916746 119.132191,177.924292 C119.145463,171.572583 119.147273,165.220271 119.149083,158.868562 C119.150893,151.826056 119.152703,144.543431 119.170803,137.383278 C119.174423,135.84241 119.181059,133.263235 117.249845,131.327194 C115.982882,130.057214 114.230853,129.413476 112.042626,129.412873 L111.954542,129.413476 C102.459558,129.484064 92.7980581,129.493114 83.454506,129.502164 C78.7588989,129.506387 74.0626885,129.511214 69.3664782,129.522677 C68.3631639,129.525693 67.593333,129.812268 67.0841344,130.002313 C66.9719177,130.044545 66.8452213,130.093413 66.695599,130.139869 L63.2989309,131.189638 L63.7544344,134.715416 C64.7251695,142.232731 67.3097745,149.368147 71.6313258,156.430562 L63.9306026,163.821181 C60.5079919,158.807627 57.6718042,152.71112 55.474528,145.636036 L55.1951928,144.742525 C54.3825264,142.151887 53.615712,139.704234 53.4636764,137.404395 C53.2675987,134.438494 52.2081761,132.246648 50.3143678,130.88979 C48.467618,129.567322 46.3258469,129.388741 44.4736673,129.388741 C44.3596406,129.388741 44.2438039,129.389344 44.125554,129.39055 C40.3530202,129.433989 36.362086,129.453295 31.1844296,129.453295 C28.7216944,129.453295 26.2595626,129.449072 23.7968274,129.444849 C21.3292656,129.440626 18.8623072,129.436402 16.3947455,129.436402 C14.0635332,129.436402 11.7341308,129.440022 9.40593502,129.451485 L9.36189296,129.451485 C8.02554841,129.451485 6.20293131,129.140778 5.10610314,127.662051 C4.11183867,126.32088 3.94834008,124.316061 4.64637649,122.015618 C4.89313266,121.202348 5.47110922,119.297077 9.64002156,119.297077 L9.69371667,119.297077 C11.3836043,119.304317 13.0734919,119.30673 14.7639828,119.30673 C17.3244552,119.30673 19.8849276,119.300697 22.4453999,119.294663 C24.9992358,119.28863 27.5530717,119.282597 30.1069076,119.282597 C35.6688761,119.282597 39.9469886,119.31216 43.978345,119.377921 C44.1020247,119.379731 44.2238945,119.380938 44.3433511,119.380938 C49.6048684,119.380938 52.5074208,116.89588 53.4769493,111.560155 C55.3345587,101.335158 59.0093554,92.3143798 64.6690612,84.1261775 C67.2108307,86.8030898 69.6234907,89.3400328 72.2020625,91.814231 C72.139921,91.9451505 72.0832093,92.0597806 72.0500269,92.1285586 C69.6186642,97.1059141 67.4943892,102.260041 65.4394955,107.244637 C65.1058618,108.05489 64.7716249,108.865143 64.4367846,109.674793 C63.9070733,110.953219 63.8334687,112.17976 63.7683106,113.261505 C63.7423681,113.689256 63.7158222,114.131487 63.6621271,114.594833 L63.1131097,119.306126 L67.856982,119.306126 L71.6458053,119.306126 L73.3948179,119.306126 L73.9945138,119.306126 L82.3709507,119.307333 L90.7491976,119.309143 C96.339522,119.309143 103.699372,119.30673 111.061635,119.288027 C111.232373,119.288027 111.409145,119.297077 111.588329,119.304317 C111.888781,119.316383 112.192249,119.327846 112.490287,119.327846 C116.523453,119.327846 119.130984,116.742034 119.132794,112.739637 C119.13762,101.832894 119.137017,90.9261501 119.136414,79.8317754 L119.13581,68.0622903 L119.13581,63.2991119 L114.407021,63.8698487 C105.906301,64.8954856 98.5748071,67.570588 91.9926315,72.0477947 C91.8351661,72.1551849 91.7018333,72.2402524 91.5896165,72.3072205 C91.5142021,72.231806 91.4273246,72.1419119 91.3283808,72.0339184 C88.988722,69.4776693 86.5688222,67.1440437 84.0125731,64.6879449 C92.2031887,58.99928 101.229397,55.369732 111.467666,53.6315792 C118.428121,52.4496835 119.266127,47.883186 119.218465,44.0370476 C119.085132,33.1839993 119.095992,21.8519181 119.25225,9.39344638 C119.281813,7.02181188 120.674869,5.18290525 122.887832,4.59527563 C123.38255,4.46375279 123.890542,4.39678473 124.398534,4.39678473" id="Fill-7"></path>
                        </g>
                    </g>
                </g>
            </g>
        </g>
    </g>
</svg>