<?xml version="1.0" encoding="UTF-8"?>
<svg width="309px" height="308px" viewBox="0 0 309 308" version="1.1" xmlns="http://www.w3.org/2000/svg" xmlns:xlink="http://www.w3.org/1999/xlink">
    <!-- Generator: sketchtool 40 (33762) - http://www.bohemiancoding.com/sketch -->
    <title>7B3D589E-9769-4569-8C8F-E062EBDDD5E8</title>
    <desc>Created with sketchtool.</desc>
    <defs>
        <filter x="-50%" y="-50%" width="200%" height="200%" filterUnits="objectBoundingBox" id="filter-1">
            <feOffset dx="0" dy="0" in="SourceAlpha" result="shadowOffsetOuter1"></feOffset>
            <feGaussianBlur stdDeviation="15" in="shadowOffsetOuter1" result="shadowBlurOuter1"></feGaussianBlur>
            <feColorMatrix values="0 0 0 0 0   0 0 0 0 0   0 0 0 0 0  0 0 0 0.203011775 0" type="matrix" in="shadowBlurOuter1" result="shadowMatrixOuter1"></feColorMatrix>
            <feMerge>
                <feMergeNode in="shadowMatrixOuter1"></feMergeNode>
                <feMergeNode in="SourceGraphic"></feMergeNode>
            </feMerge>
        </filter>
        <polygon id="path-2" points="0 249.155405 249.126689 249.155405 249.126689 0.000844594595 0 0.000844594595"></polygon>
    </defs>
    <g id="Landing-Page" stroke="none" stroke-width="1" fill="none" fill-rule="evenodd">
        <g id="01_Landing_Page_Desktop" transform="translate(-162.000000, -2810.000000)">
            <g id="How-it-Works" transform="translate(60.000000, 985.000000)">
                <g id="Payments" transform="translate(132.000000, 1763.000000)">
                    <g id="Group-12">
                        <g id="Payments" filter="url(#filter-1)" transform="translate(0.000000, 91.000000)">
                            <path d="M145.699324,101.849662 C147.084459,101.845439 148.523649,101.635135 149.84375,101.220439 C155.190034,99.5396959 158.377534,94.2719595 157.535473,88.714527 C156.712838,83.2829392 152.305743,79.6630068 146.309122,79.6478041 C132.310811,79.6131757 118.3125,79.6351351 104.314189,79.6435811 C103.774493,79.6435811 103.234797,79.7381757 102.634291,79.7947635 L102.634291,101.76098 C103.158784,101.815878 103.432432,101.869088 103.705236,101.869932 C117.703547,101.875 131.701014,101.893581 145.699324,101.849662" id="Fill-1" fill="#FB8C00"></path>
                            <path d="M163.076436,129.082179 C158.219172,125.250253 152.550253,123.925929 146.50549,123.914949 C132.655828,123.889611 118.805321,123.907348 104.955659,123.907348 L102.642314,123.907348 L102.642314,156.918328 C103.154139,156.980828 103.431166,157.044172 103.709037,157.044172 C118.332348,157.050929 132.957348,157.15228 147.57897,157.007855 C153.954814,156.94451 159.726774,154.876098 164.350929,150.251943 C170.694679,143.908193 170.134713,134.649747 163.076436,129.082179" id="Fill-3" fill="#FB8C00"></path>
                            <path d="M168.911402,175.837669 C163.253463,178.221115 157.337922,179.238007 151.223057,179.227872 C149.761064,179.226182 148.299916,179.227872 146.677449,179.227872 L146.677449,201.075 L135.663091,201.075 L135.663091,179.344426 L113.544003,179.344426 L113.544003,201.128209 L102.60397,201.128209 L102.60397,179.227872 L85.9806588,179.227872 L69.3936655,179.227872 L69.3936655,157.110473 L80.1141047,157.110473 L80.1141047,79.6881757 L69.3995777,79.6881757 L69.3995777,57.6991554 L102.463767,57.6991554 L102.463767,35.5606419 L113.473057,35.5606419 L113.473057,57.5040541 L135.568497,57.5040541 L135.568497,35.5944257 L146.594679,35.5944257 L146.594679,57.3976351 C161.861571,58.4010135 172.93674,65.3342905 177.99924,79.8976351 C182.400422,92.5614865 179.689274,103.775169 168.719679,112.715203 C169.907179,113.225338 170.782179,113.555574 171.616639,113.968581 C182.59299,119.404392 188.361571,128.602872 190.428294,140.352872 C193.433361,157.444088 181.908024,170.363007 168.911402,175.837669 M127.046537,2.29459459 C60.1951858,1.03952703 4.15633446,53.6172297 2.97390203,121.994764 C1.84045608,187.491385 54.5693412,244.297128 122.612416,245.495608 C188.845524,246.662838 244.730659,193.381588 246.142821,126.319932 C247.547382,59.6315878 195.109882,3.91621622 127.046537,2.29459459" id="Fill-5" fill="#FB8C00"></path>
                            <path d="M147.579054,157.007601 C153.954899,156.945101 159.726858,154.875845 164.351014,150.251689 C170.693919,143.907939 170.134797,134.650338 163.07652,129.081926 C158.219257,125.25 152.550338,123.925676 146.505574,123.914696 C139.280068,123.902027 132.055405,123.900338 124.829899,123.902027 L124.224324,157.079392 C132.009797,157.090372 139.794426,157.084459 147.579054,157.007601" id="Fill-7" fill="#F67C00"></path>
                            <path d="M127.046875,2.29510135 L126.040118,57.5037162 L135.568834,57.5037162 L135.568834,35.5940878 L146.595017,35.5940878 L146.595017,57.3972973 C161.861909,58.4006757 172.937078,65.3339527 177.998733,79.8972973 C182.40076,92.5611486 179.689611,103.774831 168.720017,112.714865 C169.906672,113.225845 170.782517,113.555236 171.616976,113.968243 C182.593328,119.404899 188.361909,128.602534 190.427787,140.352534 C193.433699,157.44375 181.907517,170.363514 168.91174,175.837331 C163.253801,178.220777 157.337416,179.237669 151.222551,179.228378 C149.761402,179.225845 148.300253,179.227534 146.676943,179.227534 L146.676943,201.074662 L135.662584,201.074662 L135.662584,179.344932 L123.818834,179.344932 L122.612753,245.496115 C188.845017,246.663345 244.730997,193.38125 246.143159,126.319595 C247.54772,59.6320946 195.11022,3.91672297 127.046875,2.29510135" id="Fill-9" fill="#F67C00"></path>
                            <path d="M146.309037,79.6481419 C139.41799,79.6304054 132.527787,79.6278716 125.63674,79.6295608 L125.231334,101.877027 C132.05397,101.877027 138.876605,101.871115 145.69924,101.85 C147.084375,101.844932 148.524409,101.635473 149.843666,101.220777 C155.189949,99.5400338 158.377449,94.2722973 157.535389,88.7140203 C156.712753,83.283277 152.305659,79.6633446 146.309037,79.6481419" id="Fill-11" fill="#F67C00"></path>
                            <g id="Group-15" transform="translate(0.000000, 0.843750)">
                                <mask id="mask-3" fill="white">
                                    <use xlink:href="#path-2"></use>
                                </mask>
                                <g id="Clip-14"></g>
                                <path d="M124.67973,5.91342905 C93.6324324,5.91342905 64.3756757,17.6820101 42.0682432,39.1980574 C19.3165541,61.144848 6.48209459,90.8103885 5.92888514,122.730997 C5.39087838,153.884713 17.1315878,183.634713 38.9888514,206.499578 C61.0927365,229.621199 90.8089527,242.663429 122.664527,243.225084 C187.726182,244.372044 241.81402,192.208193 243.187331,126.942145 C243.852872,95.3543074 232.246453,65.4134291 210.506588,42.6330236 C188.651014,19.7318412 158.988007,6.69890203 126.982095,5.93454392 C126.214358,5.92103041 125.444932,5.91342905 124.67973,5.91342905 M124.770101,249.155828 C124.035304,249.155828 123.298818,249.149071 122.560642,249.135557 C89.1155405,248.546875 57.9179054,234.855997 34.7152027,210.584882 C11.7743243,186.586571 -0.548310811,155.350084 0.0184121622,122.627956 C0.597804054,89.1271115 14.0741554,57.9869088 37.9643581,34.9429899 C61.9601351,11.7960304 93.6273649,-0.614442568 127.102027,0.0240709459 L127.11723,0.0240709459 C160.703378,0.824746622 191.837669,14.5071791 214.784459,38.5519426 C237.610473,62.4700169 249.797128,93.9058277 249.098649,127.067145 C247.671284,194.839949 192.111318,249.155828 124.770101,249.155828" id="Fill-13" fill="#0C0F1C" mask="url(#mask-3)"></path>
                            </g>
                            <path d="M129.561993,157.077449 C120.944595,157.077449 112.326351,157.040287 103.708953,157.036909 C103.431081,157.036909 103.153209,156.973564 102.64223,156.911064 L102.64223,123.89924 L104.955574,123.89924 C112.947128,123.89924 120.936993,123.894172 128.928547,123.894172 C134.786655,123.894172 140.647297,123.896706 146.50625,123.907686 C152.550169,123.918666 158.219088,125.24299 163.076351,129.074916 C170.134628,134.642483 170.694595,143.900929 164.350845,150.243834 C159.726689,154.868834 153.95473,156.937247 147.578885,157.000591 C141.573818,157.059713 135.567905,157.077449 129.561993,157.077449 L129.561993,157.077449 Z M124.358446,101.870524 C117.474155,101.870524 110.58902,101.864611 103.70473,101.862078 C103.431926,101.862078 103.159122,101.808868 102.633784,101.75397 L102.633784,79.7877534 C103.235135,79.7311655 103.774831,79.6365709 104.314527,79.6357264 C112.546791,79.6315034 120.778209,79.6213682 129.009628,79.6213682 C134.775676,79.6213682 140.542568,79.6264358 146.308615,79.6407939 C152.306081,79.6559966 156.713176,83.2759291 157.535811,88.7066723 C158.377027,94.2649493 155.189527,99.5326858 149.844088,101.213429 C148.523986,101.628125 147.084797,101.838429 145.699662,101.842652 C138.584797,101.864611 131.472466,101.870524 124.358446,101.870524 L124.358446,101.870524 Z M113.473311,35.5529561 L102.463176,35.5529561 L102.463176,57.6914696 L69.3998311,57.6914696 L69.3998311,79.6804899 L80.1135135,79.6804899 L80.1135135,157.102787 L69.3939189,157.102787 L69.3939189,179.220186 L85.9809122,179.220186 L102.604223,179.220186 L102.604223,201.120524 L113.544257,201.120524 L113.544257,179.337584 L135.6625,179.337584 L135.6625,201.067314 L146.677703,201.067314 L146.677703,179.220186 L149.586486,179.220186 C150.137162,179.220186 150.680236,179.220186 151.222466,179.22103 L151.30777,179.22103 C157.39223,179.22103 163.279899,178.202449 168.911655,175.829983 C181.908277,170.356166 193.433615,157.436402 190.427703,140.345186 C188.361824,128.595186 182.593243,119.397551 171.616892,113.96174 C170.782432,113.547889 169.906588,113.218497 168.719932,112.707517 C179.689527,103.767483 182.400676,92.5538007 177.998649,79.8899493 C172.936993,65.3266047 161.861824,58.3933277 146.594932,57.3899493 L146.594932,35.5867399 L135.56875,35.5867399 L135.56875,57.4963682 L113.473311,57.4963682 L113.473311,35.5529561 Z M129.561993,162.989611 C136.544257,162.989611 142.2875,162.965118 147.637162,162.911909 C155.835642,162.831672 163.060304,159.896706 168.531588,154.424578 C172.804392,150.151774 174.975,144.688091 174.64223,139.040287 C174.309459,133.37897 171.502027,128.19147 166.737669,124.433024 C161.265541,120.116301 154.650676,118.010726 146.516385,117.995524 C140.654899,117.984544 134.790878,117.98201 128.928547,117.98201 C124.931926,117.98201 120.936149,117.982855 116.939527,117.984544 C112.945439,117.986233 108.950507,117.987078 104.955574,117.987078 L102.64223,117.987078 L96.7300676,117.987078 L96.7300676,123.89924 L96.7300676,156.911064 L96.7300676,162.145017 L101.926014,162.779307 C102.053547,162.795355 102.159966,162.810557 102.253716,162.824916 C102.610135,162.87728 103.097466,162.949071 103.706419,162.949071 C107.769764,162.95076 111.833108,162.960051 115.897297,162.969341 C120.452196,162.979476 125.007095,162.989611 129.561993,162.989611 L129.561993,162.989611 Z M124.358446,107.782686 C132.722466,107.782686 139.509628,107.773395 145.717399,107.754814 C147.720777,107.748057 149.761318,107.436402 151.616892,106.852787 C159.717399,104.306334 164.665034,96.3029561 163.38125,87.8215372 C162.108446,79.4144426 155.252872,73.7514358 146.323818,73.7286318 C140.552703,73.7142736 134.780743,73.7092061 129.009628,73.7092061 C123.540034,73.7092061 118.071284,73.7134291 112.601689,73.717652 L104.311149,73.7235642 C103.599155,73.7244088 102.993581,73.7961993 102.50625,73.8536318 C102.368581,73.8705236 102.226689,73.8874155 102.080574,73.9017736 L96.7216216,74.405152 L96.7216216,79.7877534 L96.7216216,101.75397 L96.7216216,107.079139 L102.018074,107.634037 C102.160811,107.648395 102.278209,107.663598 102.379561,107.676267 C102.727534,107.720186 103.159966,107.77424 103.703041,107.77424 L110.966554,107.777618 C115.430236,107.780152 119.894764,107.782686 124.358446,107.782686 L124.358446,107.782686 Z M141.480912,62.9786318 L146.207264,63.2894426 C159.816216,64.1838682 168.388851,70.248902 172.414189,81.8308277 C176.103378,92.4431588 173.672635,101.043666 164.985135,108.124747 L157.426014,114.284375 L166.382939,118.13826 C166.810304,118.322382 167.199662,118.483699 167.561993,118.634882 C168.15152,118.879814 168.616892,119.073226 168.992736,119.259037 C177.634628,123.539443 182.741047,130.771706 184.605068,141.368834 C185.732601,147.779307 184.447973,153.748902 180.7875,159.111233 C177.512162,163.909375 172.479223,167.911909 166.616047,170.381503 C161.940372,172.351098 156.93277,173.308868 151.30777,173.308868 L151.231757,173.308868 L149.586486,173.308024 L148.194595,173.308024 L146.677703,173.308024 L140.765541,173.308024 L140.765541,173.425422 L135.6625,173.425422 L113.544257,173.425422 L108.516385,173.425422 L108.516385,173.308024 L102.604223,173.308024 L85.9809122,173.308024 L75.3060811,173.308024 L75.3060811,163.014949 L80.1135135,163.014949 L86.0256757,163.014949 L86.0256757,157.102787 L86.0256757,79.6804899 L86.0256757,73.7683277 L80.1135135,73.7683277 L75.3119932,73.7683277 L75.3119932,63.6036318 L102.463176,63.6036318 L108.375338,63.6036318 L108.375338,63.4085304 L113.473311,63.4085304 L135.56875,63.4085304 L141.480912,63.4085304 L141.480912,62.9786318 L141.480912,62.9786318 Z" id="Fill-16" fill="#0C0F1C"></path>
                        </g>
                    </g>
                </g>
            </g>
        </g>
    </g>
</svg>