<?xml version="1.0" encoding="UTF-8"?>
<svg width="50px" height="43px" viewBox="0 0 50 43" version="1.1" xmlns="http://www.w3.org/2000/svg" xmlns:xlink="http://www.w3.org/1999/xlink">
    <!-- Generator: sketchtool 40 (33762) - http://www.bohemiancoding.com/sketch -->
    <title>F3A1ABF1-5380-4DA9-A0DD-C931F5F5E3C5</title>
    <desc>Created with sketchtool.</desc>
    <defs></defs>
    <g id="Landing-Page" stroke="none" stroke-width="1" fill="none" fill-rule="evenodd">
        <g id="01_Landing_Page_Desktop" transform="translate(-60.000000, -61.000000)" fill="#FFFFFF">
            <g id="Header" transform="translate(60.000000, 47.000000)">
                <g id="Left-Side-Logo" transform="translate(0.000000, 13.000000)">
                    <g id="pwnyup_white_logo" transform="translate(0.000000, 1.000000)">
                        <path d="M47.446057,26.8181332 L47.4372684,26.8902546 L47.437209,26.8902546 L47.437209,26.8902546 L47.3929691,26.8325457 C46.6537767,25.8691677 45.8635154,25.3112353 45.6661283,25.1797443 C45.6716508,25.5085608 45.6740855,27.2286794 45.1965321,29.3452877 C44.7079929,31.5107084 43.6027672,34.5464491 41.1121496,36.7115732 L41.1120903,36.7115732 L41.0640499,36.6812063 C42.2070428,32.5944863 41.9529454,28.8993926 41.5384561,26.5192091 C41.0892874,23.9397429 40.3603088,22.3059208 40.3530048,22.2896698 L40.3424941,22.2664794 L40.3639311,22.2526008 C40.3686817,22.249576 40.454905,22.195485 40.6120903,22.1965526 C40.6645249,22.1969084 40.7247981,22.2034326 40.7926722,22.2199801 C41.141247,22.3048532 41.7021734,22.6626726 42.4104276,23.8768146 C42.5891686,22.3925139 42.1590618,20.8117746 41.131152,19.1769443 C40.2913658,17.841216 39.0531235,16.4667581 37.450867,15.0917663 C34.7213539,12.7494822 31.8441568,11.1988726 31.8154157,11.1835112 L31.7749762,11.1618036 L31.8113183,11.1338684 C31.8335867,11.116787 32.1129216,10.9132932 32.7737292,10.909616 C33.4345368,10.9058794 34.4768171,11.1020188 36.0250356,11.8841443 C35.6367933,11.2705788 34.5291924,9.96349738 32.7234917,8.84537876 C31.3300831,7.98253186 29.7338836,7.34725876 27.9791924,6.95729324 C26.6079335,6.65249738 25.1369121,6.497816 23.5827553,6.49390152 C22.6502138,6.49158841 21.6878029,6.54348497 20.6990261,6.64982841 L20.6737292,6.65255669 L20.6737292,6.65255669 L20.0356057,4.28554014 L20.0560333,4.27433048 C20.0704038,4.26656083 21.5139311,3.48490979 23.6992043,2.95568359 C24.7707601,2.69614152 26.1424347,2.47076221 27.6756888,2.46987255 C29.0285392,2.46910152 30.5072209,2.64305876 32.0166033,3.1225829 L32.0619715,3.13705462 L32.0290736,3.17139531 C31.6497981,3.56776634 30.8774703,3.854176 30.6015202,3.94758979 C31.1186223,4.07759807 33.5408907,4.72200497 36.2290143,6.01544497 C38.0024109,6.8687429 39.5430879,7.83342566 40.8082304,8.88280359 C42.3908907,10.1954008 43.5445724,11.6450643 44.237209,13.1914036 L44.2654751,13.2545691 L44.2654157,13.2545098 L44.2654157,13.2545691 L44.2001544,13.2314974 C44.0495606,13.1782367 43.8059145,13.1602657 43.5470071,13.160147 C43.1154751,13.1598505 42.6414846,13.2090781 42.4853682,13.2267526 C42.7110214,13.5104932 44.0279454,15.2031512 45.2474822,17.545376 C46.477886,19.908656 47.8581116,23.4357236 47.446057,26.8181332 L47.446057,26.8181332 Z M12.3110214,16.1472532 C12.2845962,16.0210408 12.4674941,15.8913884 12.6474228,15.8978532 C12.7610214,15.902005 12.8734323,15.9604257 12.9312114,16.1083457 C12.9360214,16.1206822 12.9404157,16.1336712 12.9444537,16.1472532 C12.9632185,16.2204422 12.9788361,16.2911994 12.9916627,16.3595843 C13.1002732,16.940885 12.9999762,17.3509567 12.7971259,17.639976 C12.7374466,17.725027 12.6689192,17.7995208 12.5942162,17.8648808 C12.5493824,17.904085 12.5023515,17.9399677 12.4537173,17.9728257 C12.4374466,17.9837981 12.421057,17.9944146 12.4044893,18.0046753 C12.3713539,18.025256 12.3375653,18.0445319 12.303361,18.0626215 C12.2861995,18.0716367 12.2689786,18.0803553 12.251639,18.0887774 C11.8184442,18.2992698 11.3259264,18.3246546 11.1125653,18.3245953 C11.0443349,18.3245953 11.0046081,18.3219263 11.0046081,18.3219263 C11.0046081,18.3219263 12.5881591,17.0962188 12.3110214,16.1472532 L12.3110214,16.1472532 Z M38.8777672,28.3994063 C38.7854869,28.5095457 36.7724822,30.8974394 35.7978385,30.8932877 C35.7152375,30.8929319 35.6401188,30.8754353 35.5742043,30.8378326 L35.5559739,30.8274532 L35.559715,30.8067539 C36.0110214,28.3409263 35.6697506,25.9107443 34.545285,23.5837622 C33.5144062,21.4503098 32.0299644,19.8368905 30.9272328,18.8330036 C32.6174347,22.492867 32.6495012,25.763536 32.37462,27.8726119 C32.0731354,30.1862491 31.3472447,31.6413691 31.3399406,31.6557815 C31.3350119,31.6688891 30.7111401,33.249925 29.0605463,34.9252643 C27.5377435,36.4709512 24.8039549,38.416627 20.4284204,38.907776 L20.3744418,38.9137663 L20.3744418,38.9137663 L20.3984917,38.8651319 C23.0124466,33.573107 22.4364371,29.378976 22.1596556,27.3633139 C22.0554394,26.6043788 21.9924941,26.1462063 22.1342993,25.9838146 C22.1718884,25.9408146 22.2233729,25.9189884 22.2872684,25.9189884 C23.2147625,25.9189884 24.5690974,24.6353346 24.5826366,24.622405 L24.605677,24.6004008 L24.605677,24.6004601 L24.605677,24.6004008 L24.6260451,24.6248367 C24.6438005,24.6460698 26.3874466,26.8006367 26.4140499,32.401965 C28.0159501,28.9987967 27.2923753,25.4347194 26.9015796,23.5098615 C26.795285,22.9862105 26.7112589,22.5725208 26.7112589,22.3307126 C26.7112589,22.1436477 26.7518171,21.8706422 26.8031829,21.5250408 C26.9283017,20.6828339 27.1174941,19.4100339 26.872304,18.1476132 C26.5873278,16.6804532 25.7712945,15.560496 24.4462945,14.8171001 C25.349323,16.3673539 25.6163064,17.8929939 25.24,19.3532146 C24.5593587,21.9939484 21.9720665,23.5273581 21.9459976,23.5424822 C21.9209382,23.5530988 19.7816271,24.4335608 17.6667221,25.7296105 C15.7195131,26.9229346 13.3951663,28.7218767 13.3799644,30.5157774 C13.3686223,31.848896 13.1611995,33.6143277 12.237209,34.4540436 C11.796829,34.8543291 11.378658,34.8777567 11.2676128,34.8759774 C11.2516983,34.8757401 11.2421378,34.8749691 11.2395843,34.8747319 C11.2261045,34.8714698 10.4430879,34.6383801 10.073848,33.6966505 C9.70555819,32.7575305 9.694038,30.9367622 11.7181473,27.5891084 C9.01048694,28.0391553 8.65098575,31.8650877 8.47764846,33.7110036 C8.419038,34.3353636 8.39207838,34.5904574 8.31375297,34.6339319 C8.30532067,34.6385581 8.29629454,34.6409305 8.28714964,34.6410491 C8.27800475,34.6411677 8.26874109,34.6389732 8.25977435,34.6344657 C8.23210214,34.6206463 8.19950119,34.6149526 8.16280285,34.6162574 C7.80787411,34.6291277 7.06452494,35.3021815 6.60312352,35.7202601 C6.52735154,35.7888822 6.45650831,35.853056 6.39255344,35.9099346 C6.30068884,35.9915457 6.1869715,36.0314615 6.0606057,36.0286146 C5.98477435,36.0268946 5.90437055,36.0098132 5.8214133,35.9770739 C5.49944181,35.8499719 5.24528504,35.5340257 5.21707838,35.2257898 C5.20074822,35.0474436 5.25134204,34.7911636 5.58507126,34.5828063 C6.27260095,34.1536367 6.40086698,32.8175526 6.30431116,32.3420022 C6.28334917,32.2386836 6.25799287,32.2142477 6.25229216,32.2132988 C6.25223278,32.2132988 6.24041568,32.2153153 6.22046318,32.2502491 C6.15781473,32.359736 6.06986936,32.4284767 5.95900238,32.4545732 C5.92705463,32.462165 5.89415677,32.4654863 5.860962,32.4654863 C5.62877672,32.4657829 5.38400238,32.3047553 5.38400238,32.3047553 L5.39635392,32.2810905 C5.40104513,32.2721346 5.85336105,31.3853857 5.29635392,30.6722381 C4.69065321,31.0110188 4.32669834,31.4232257 4.21434679,31.8977084 C4.08631829,32.4386781 4.27586698,33.067427 4.79397862,33.8201346 L4.79920428,33.8277263 L4.79920428,33.8369194 C4.79920428,34.508965 3.34902613,34.6325677 3.28732779,34.6374905 L3.26992874,34.6388546 L3.26986936,34.6388546 L3.26019002,34.6243829 C3.19688836,34.529605 1.71179335,32.2892753 1.88982185,31.2224008 L1.89243468,31.2066836 L1.90698337,31.2002188 C4.2977791,30.1309126 5.43685273,25.4457512 6.26862233,22.0247898 C6.82723278,19.7269884 7.26850356,17.9120919 7.89374109,17.9120919 L7.89380048,17.9120919 L7.90342043,17.9120919 L7.90342043,17.9120919 L7.91119952,17.9177263 C7.94528504,17.9423994 8.74504751,18.5285636 8.65876485,19.1321057 C8.32622328,20.5100036 8.38489311,22.4987388 8.41220903,23.0994932 C8.58014252,22.554016 9.20068884,20.8611801 10.6336461,20.0480946 L10.6411876,20.0451291 C12.8685036,19.4950257 13.986734,18.098267 14.5325772,17.023267 C15.0206413,16.0623801 15.1511045,15.1802574 15.1822209,14.8936698 C15.0158907,15.0937829 14.5499169,15.6064615 14.1439192,15.6065801 L14.1438599,15.6065801 C14.1213539,15.6065801 14.0990261,15.6049194 14.0768765,15.6016574 C13.8896437,15.5736629 13.7456413,15.4266326 13.6489667,15.1644215 C13.4758076,14.6949208 13.5869715,14.1092905 13.9705226,13.4708146 C14.1844181,13.1147153 14.429133,12.8324574 14.5423753,12.7093291 C14.1087055,12.7944988 12.2461164,13.1970381 12.0425534,13.8580519 C11.6857838,15.5809581 10.5063895,17.8985691 9.82931116,18.2059746 L9.82165083,18.2094739 L9.82165083,18.2094739 L9.81333729,18.2084063 C9.79587886,18.2062712 9.3812114,18.1499263 9.01304038,17.650296 C8.28548694,16.6628974 8.41921615,14.8741567 8.65947743,13.5475029 L8.66339667,13.5371829 C10.2676722,10.9404574 12.2082304,10.6985898 12.4609026,10.6780091 C12.5854276,8.41419255 14.3586461,6.91275117 15.7845962,5.70525186 C16.6639905,4.96061048 17.4234917,4.3174491 17.6871496,3.63721876 L17.7035986,3.59475255 L17.7035986,3.59475255 L17.7035986,3.59475255 L17.7358432,3.62695807 C18.7873872,4.67722566 18.7809739,6.59888083 18.5904751,8.02600634 C18.4134561,9.35194841 18.049323,10.5080257 17.9478385,10.8144822 C18.2788361,10.6039898 19.6797268,9.67738428 20.0431473,8.85528359 L20.0519952,8.835296 L20.0520546,8.835296 L20.0737886,8.83778703 C24.2598337,9.32537738 27.8537767,10.6561829 30.7557957,12.7930753 C33.0777078,14.5028146 34.9640499,16.729325 36.3625653,19.4107457 C38.7431473,23.9754477 38.8835273,28.3360629 38.884715,28.3795967 L38.8850119,28.3908063 L38.8777672,28.3994063 Z M48.9135748,19.866427 C48.0479572,17.207307 46.9152969,15.5804836 46.7484917,15.3491732 C47.1011639,15.1805539 47.9441568,15.1284201 48.8199287,16.070387 L48.8938599,16.1499815 L48.8707007,16.0439346 C48.4835867,14.2735208 47.5293705,12.5251112 46.0345368,10.8471622 C44.8397031,9.50597738 43.2986698,8.20654703 41.4542518,6.98487255 C38.6113777,5.10188772 35.9063302,3.98252359 35.3986105,3.77944497 L37.4256295,3.25122703 L37.3675534,3.21475117 C35.5559739,2.07622979 33.4863777,1.32565738 31.2164252,0.983733241 C29.4011045,0.710371862 27.4541924,0.696256 25.4300238,0.941919448 C22.1910689,1.33502841 19.7793705,2.27841876 19.48038,2.39911531 C19.4093587,2.154816 18.9148219,0.614526345 17.5906532,0.0158477241 L17.5557363,1.1862069e-05 L17.5491449,0.0377332414 C17.051639,2.76464497 15.0280048,3.96336634 15.0280048,3.96336634 C15.2701663,3.41705876 15.0818052,2.67745876 14.8742637,2.32972221 C14.4252732,1.60904221 13.8449881,0.787653241 12.8557957,0.808293241 L12.8126841,0.811199448 L12.8307957,0.850344276 C13.4021734,2.08684634 12.3590024,3.55240497 11.2545487,5.1040229 C10.2934442,6.45428221 9.17634204,8.11313324 9.17634204,9.28664772 C9.17634204,10.4601622 9.92586698,10.6873208 9.92586698,10.6873208 C9.64083135,10.8402229 7.39528504,12.0366905 7.20526128,12.7144298 L7.20371734,12.7199457 L7.20437055,12.7256988 C7.39599762,14.4719732 6.78097387,15.6687967 6.77396675,15.6822008 C6.75258907,15.7293526 4.62574822,20.4469567 3.8325772,24.4868808 C3.21488124,27.6334132 0.232874109,30.2676229 0.00912114014,30.5317319 L0.00241092637,30.5396794 L0.00205463183,30.5500588 C-0.0441448931,32.1656726 0.687268409,33.7303981 1.30900238,34.7585429 C1.98198337,35.8715015 2.67527316,36.6131181 2.6822209,36.6205319 L2.69368171,36.6327498 L3.94160333,36.3657346 C4.12485748,36.5407594 5.97349169,38.2891691 6.71268409,38.2889319 C6.7923753,38.2889319 6.8592399,38.2686477 6.90965558,38.2238684 C8.29825416,37.0103194 9.46642518,37.0052188 10.8190974,36.9992877 C11.5580523,36.9960257 12.3221259,36.9927636 13.2199881,36.8071815 C14.2897625,36.5861319 14.9716508,35.5391857 15.1918409,33.7793884 C15.349323,32.5211194 15.2187411,31.307096 15.2042518,31.180765 C15.3369715,30.9755512 17.6924941,27.3764215 19.4749762,27.3764215 C19.4879216,27.3764215 19.9268171,31.2007526 19.4910095,33.2264974 C19.140772,34.8543291 18.5149406,36.5230257 17.6308551,38.1862063 C16.1249762,41.0192243 14.3679691,42.8776546 14.3503919,42.8960408 L14.3026485,42.9461581 L14.3718884,42.9461581 C14.4055582,42.9461581 17.7925534,42.9307374 22.4742043,41.5995167 C25.2236105,40.8176284 27.8753919,39.7416201 30.3558551,38.4013843 C33.438753,36.7355939 36.2644062,34.6543939 38.7548456,32.2153746 C39.1508076,35.4422726 38.3613183,38.021976 37.6264014,39.6213981 C36.8250356,41.365656 35.9140499,42.3526988 35.904905,42.362485 L35.8228385,42.4504422 L35.9364964,42.410645 C38.6623872,41.4557484 40.9684442,40.172925 42.7904751,38.5978794 C44.2487886,37.3372381 45.4020546,35.8878119 46.2183254,34.2896353 C47.3095962,32.1530394 47.556924,30.1538063 47.5367933,29.3497953 C48.0370309,29.5596946 48.9829929,30.3309663 49.244038,31.8902353 L49.2681473,32.0341815 L49.3021734,31.8922519 C50.5389905,26.7385981 49.7734917,22.5079912 48.9135748,19.866427 L48.9135748,19.866427 Z" id="Fill-1"></path>
                    </g>
                </g>
            </g>
        </g>
    </g>
</svg>