<?xml version="1.0" encoding="UTF-8"?>
<svg width="466px" height="310px" viewBox="0 0 466 310" version="1.1" xmlns="http://www.w3.org/2000/svg" xmlns:xlink="http://www.w3.org/1999/xlink">
    <!-- Generator: sketchtool 40 (33762) - http://www.bohemiancoding.com/sketch -->
    <title>5C4454A4-FE59-4C52-BA26-65EEF31EF502</title>
    <desc>Created with sketchtool.</desc>
    <defs>
        <filter x="-50%" y="-50%" width="200%" height="200%" filterUnits="objectBoundingBox" id="filter-1">
            <feOffset dx="0" dy="0" in="SourceAlpha" result="shadowOffsetOuter1"></feOffset>
            <feGaussianBlur stdDeviation="15" in="shadowOffsetOuter1" result="shadowBlurOuter1"></feGaussianBlur>
            <feColorMatrix values="0 0 0 0 0   0 0 0 0 0   0 0 0 0 0  0 0 0 0.197322237 0" type="matrix" in="shadowBlurOuter1" result="shadowMatrixOuter1"></feColorMatrix>
            <feMerge>
                <feMergeNode in="shadowMatrixOuter1"></feMergeNode>
                <feMergeNode in="SourceGraphic"></feMergeNode>
            </feMerge>
        </filter>
    </defs>
    <g id="Landing-Page" stroke="none" stroke-width="1" fill="none" fill-rule="evenodd">
        <g id="01_Landing_Page_Desktop" transform="translate(-877.000000, -1173.000000)">
            <g id="How-it-Works" transform="translate(60.000000, 985.000000)">
                <g id="Tournaments" transform="translate(0.000000, 218.000000)">
                    <g filter="url(#filter-1)" transform="translate(847.000000, 0.000000)">
                        <path d="M289.588725,170.707073 L281.436765,170.707073 L273.284804,170.707073 L265.132843,170.707073 L265.132843,162.555112 L273.284804,162.555112 L273.284804,138.098529 L265.132843,138.098529 L273.284804,121.794608 L281.436765,121.794608 L281.436765,162.555112 L289.588725,162.555112 L289.588725,170.707073 Z M314.044608,97.3387255 L232.5243,97.3387255 L232.525,235.923459 L313.352731,235.923459 L314.044608,97.3387255 Z" id="Fill-1" fill="#FFF9E1"></path>
                        <path d="M371.109454,172.394538 L364.645168,178.858824 L371.109454,178.858824 L371.109454,187.011485 L371.109454,211.467367 L346.653571,211.467367 L338.50091,211.467367 L338.50091,203.315406 L338.50091,195.163445 L346.653571,195.163445 L346.653571,203.315406 L362.957493,203.315406 L362.957493,187.011485 L344.965896,187.011485 L361.269818,170.706863 L338.50091,170.706863 L338.50091,162.554902 L371.109454,162.554902 L371.109454,172.394538 Z M395.566036,219.619328 L395.566036,121.794398 L314.045028,121.794398 L314.045028,235.92395 L403.717997,235.92395 L403.717997,219.619328 L395.566036,219.619328 Z" id="Fill-2" fill="#FFE082"></path>
                        <path d="M208.067997,180.165126 L191.532983,203.315686 L208.067997,203.315686 L208.067997,211.467647 L175.690546,211.467647 L199.916036,177.553081 L199.916036,170.707143 L183.612115,170.707143 L183.612115,178.859104 L175.459454,178.859104 L175.459454,162.555182 L208.067997,162.555182 L208.067997,180.165126 Z M232.52388,146.25056 L151.003571,146.25056 L151.003571,219.619608 L142.851611,219.619608 L142.851611,235.923529 L232.470658,235.923529 L232.52388,146.25056 Z" id="Fill-3" fill="#FFECB3"></path>
                        <path d="M230.073529,94.8872549 L230.073529,143.79972 L148.552521,143.79972 L148.552521,217.168768 L140.40056,217.168768 L140.40056,238.37465 L406.168768,238.37465 L406.168768,217.168768 L398.016106,217.168768 L398.016106,119.343838 L316.496499,119.343838 L316.496499,94.8872549 L230.073529,94.8872549 Z M145.302521,222.070728 L153.454482,222.070728 L153.454482,148.701681 L234.97479,148.701681 L234.97479,99.7892157 L311.593838,99.7892157 L311.593838,124.245798 L393.114846,124.245798 L393.114846,222.070728 L401.266807,222.070728 L401.266807,233.472689 L145.302521,233.472689 L145.302521,222.070728 Z M271.769608,119.343838 L261.167367,140.54972 L270.834034,140.54972 L270.834034,160.103641 L262.681373,160.103641 L262.681373,173.158263 L292.039216,173.158263 L292.039216,160.103641 L283.887255,160.103641 L283.887255,119.343838 L271.769608,119.343838 Z M274.79902,124.245798 L278.985994,124.245798 L278.985994,165.005602 L287.137955,165.005602 L287.137955,168.256303 L267.583333,168.256303 L267.583333,165.005602 L275.735294,165.005602 L275.735294,135.647759 L269.098739,135.647759 L274.79902,124.245798 Z M336.05042,160.103641 L336.05042,173.158263 L355.352241,173.158263 L339.048319,189.462185 L360.506303,189.462185 L360.506303,200.864846 L349.104342,200.864846 L349.104342,192.711485 L336.05042,192.711485 L336.05042,213.918067 L373.560224,213.918067 L373.560224,176.407563 L370.562325,176.407563 L373.560224,173.409664 L373.560224,160.103641 L336.05042,160.103641 Z M340.952381,165.005602 L368.658263,165.005602 L368.658263,171.378852 L358.727591,181.310224 L368.658263,181.310224 L368.658263,209.016106 L340.952381,209.016106 L340.952381,197.614146 L344.202381,197.614146 L344.202381,205.766106 L365.408263,205.766106 L365.408263,184.560224 L350.883754,184.560224 L367.187675,168.256303 L340.952381,168.256303 L340.952381,165.005602 Z M173.008403,160.103641 L173.008403,181.310224 L186.062325,181.310224 L186.062325,173.158263 L197.464986,173.158263 L197.464986,176.766807 L170.927871,213.918067 L210.518908,213.918067 L210.518908,200.864846 L196.294818,200.864846 L210.518908,180.95028 L210.518908,160.103641 L173.008403,160.103641 Z M177.911064,165.005602 L205.616947,165.005602 L205.616947,179.380252 L186.771008,205.766106 L205.616947,205.766106 L205.616947,209.016106 L180.453081,209.016106 L202.366947,178.338235 L202.366947,168.256303 L181.161064,168.256303 L181.161064,176.407563 L177.911064,176.407563 L177.911064,165.005602 Z" id="Fill-4" fill="#0C0F1C"></path>
                        <g id="Group-14" transform="translate(0.000000, 0.629552)">
                            <g id="Group-7" fill="#FFEC3B">
                                <path d="M240.327661,54.2943277 C240.327661,79.5548319 222.412395,100.703291 198.630182,105.736204 C202.541947,96.6871849 204.723319,86.7341036 204.723319,76.2684174 L204.723319,17.8734594 L239.579762,17.8734594 C239.988725,17.8734594 240.327661,18.212395 240.327661,18.6206583 L240.327661,54.2943277 Z M170.432003,60.6311625 L149.039846,77.4336835 L156.471919,103.605952 C156.836765,104.883964 156.359174,106.24881 155.280742,107.031022 C154.212115,107.813235 152.760434,107.839146 151.656793,107.10035 L129.073459,91.9413866 L106.473319,107.10035 C105.378081,107.839146 103.926401,107.813235 102.848669,107.031022 C101.779342,106.24881 101.301751,104.883964 101.666597,103.605952 L109.097969,77.4336835 L87.7065126,60.6311625 C86.6630952,59.8139356 86.2373249,58.4315826 86.6546919,57.1633754 C87.0636555,55.9028711 88.2191176,55.0331232 89.5405462,54.9806022 L116.738725,53.9637955 L126.10077,28.4252801 C126.561555,27.1738796 127.743627,26.347549 129.073459,26.347549 C130.403291,26.347549 131.585364,27.1738796 132.046849,28.4252801 L141.407493,53.9637955 L168.597969,54.9806022 C169.918697,55.0331232 171.07486,55.9028711 171.483824,57.1633754 C171.90119,58.4315826 171.47472,59.8139356 170.432003,60.6311625 L170.432003,60.6311625 Z M17.8017507,54.2943277 L17.8017507,18.6206583 C17.8017507,18.212395 18.1413866,17.8734594 18.5496499,17.8734594 L53.4060924,17.8734594 L53.4060924,76.2684174 C53.4060924,86.7341036 55.587465,96.6871849 59.49993,105.736204 C35.7170168,100.703291 17.8017507,79.5548319 17.8017507,54.2943277 L17.8017507,54.2943277 Z M239.579762,0.0709383754 L18.5496499,0.0709383754 C8.31855742,0.0709383754 -7.00280112e-05,8.39026611 -7.00280112e-05,18.6206583 L-7.00280112e-05,54.2943277 C-7.00280112e-05,93.1052521 31.5797619,124.685084 70.3906863,124.685084 L71.3556723,124.685084 C82.5258403,137.77612 98.1028711,146.990406 115.713515,150.136765 L115.713515,185.602451 C100.344468,191.069538 89.0104342,205.455392 89.0104342,222.518417 L89.0104342,222.596849 L71.2079132,222.596849 L71.2079132,249.29993 L186.921499,249.29993 L186.921499,222.596849 L169.119678,222.596849 L169.119678,222.518417 C169.119678,205.455392 157.784944,191.069538 142.416597,185.602451 L142.416597,150.136765 C160.027241,146.990406 175.603571,137.77612 186.773739,124.685084 L187.738725,124.685084 C226.54965,124.685084 258.129482,93.1052521 258.129482,54.2943277 L258.129482,18.6206583 C258.129482,8.39026611 249.810854,0.0709383754 239.579762,0.0709383754 L239.579762,0.0709383754 Z" id="Fill-5"></path>
                            </g>
                            <g id="Group-10" transform="translate(128.851541, 0.000000)" fill="#FDD835">
                                <path d="M111.47612,54.2943277 C111.47612,79.5548319 93.5608543,100.703291 69.7786415,105.736204 C73.6904062,96.6871849 75.8717787,86.7341036 75.8717787,76.2684174 L75.8717787,17.8727591 L110.728221,17.8727591 C111.137185,17.8727591 111.47612,18.212395 111.47612,18.6206583 L111.47612,54.2943277 Z M110.728221,0.0709383754 L0.219117647,0.0709383754 L0.219117647,21.4462885 C0.219817927,21.4462885 0.221218487,21.4455882 0.221918768,21.4455882 C3.58676471,21.4455882 6.63018207,23.5695378 7.7947479,26.7306022 L16.0265406,49.1885854 L39.9292017,50.0821429 C43.3031513,50.2158964 46.2583333,52.4539916 47.2947479,55.6514706 C48.3451681,58.8419468 47.2667367,62.4021709 44.604972,64.4890056 L25.8017507,79.2572129 L32.3360644,102.267017 C33.2597339,105.501611 32.0440476,109.012815 29.3087535,110.998109 C27.9369048,112.002311 26.2933473,112.538725 24.5706583,112.538725 C22.9656162,112.538725 21.4116947,112.066737 20.0783613,111.17388 L0.221218487,97.8447479 L0.219117647,97.8461485 L0.219117647,249.29993 L58.069958,249.29993 L58.069958,222.596849 L40.2681373,222.596849 L40.2681373,222.518417 C40.2681373,205.455392 28.9334034,191.069538 13.565056,185.602451 L13.565056,150.136765 C31.1757003,146.990406 46.7520308,137.77612 57.9221989,124.685084 L58.8871849,124.685084 C97.6981092,124.685084 129.277941,93.1052521 129.277941,54.2943277 L129.277941,18.6206583 C129.277941,8.39026611 120.959314,0.0709383754 110.728221,0.0709383754 L110.728221,0.0709383754 Z" id="Fill-8"></path>
                            </g>
                            <g id="Group-13" fill="#0C0F1C">
                                <path d="M104.714076,107.636835 C104.059314,107.636835 103.404552,107.434454 102.848529,107.031092 C101.779902,106.24888 101.301611,104.884034 101.666457,103.606022 L109.097829,77.4337535 L87.7063725,60.6312325 C86.6629552,59.8140056 86.2371849,58.4316527 86.6552521,57.1634454 C87.0635154,55.9029412 88.2189776,55.0331933 89.5404062,54.9806723 L116.738585,53.9638655 L126.10063,28.4253501 C126.562115,27.1739496 127.744188,26.347619 129.07402,26.347619 C130.403151,26.347619 131.585224,27.1739496 132.046709,28.4253501 L141.408053,53.9638655 L168.597829,54.9806723 C169.918557,55.0331933 171.07472,55.9029412 171.483683,57.1634454 C171.90105,58.4316527 171.47458,59.8140056 170.432563,60.6312325 L149.039706,77.4337535 L156.471779,103.606022 C156.836625,104.884034 156.359034,106.24888 155.281303,107.031092 C154.729482,107.434454 154.076821,107.636835 153.422059,107.636835 C152.807213,107.636835 129.07402,91.9414566 129.07402,91.9414566 L106.473179,107.10042 C105.943067,107.458263 105.328922,107.636835 104.714076,107.636835 M59.4997899,105.736275 C35.7168768,100.703361 17.8023109,79.5542017 17.8023109,54.2943978 L17.8023109,18.6207283 C17.8023109,18.212465 18.1412465,17.8728291 18.5495098,17.8728291 L53.4059524,17.8728291 L53.4059524,76.2684874 C53.4059524,86.7341737 55.5880252,96.6872549 59.4997899,105.736275 M198.630042,105.736275 C202.541807,96.6872549 204.72388,86.7341737 204.72388,76.2684874 L204.72388,17.8728291 L239.579622,17.8728291 C239.988585,17.8728291 240.327521,18.212465 240.327521,18.6207283 L240.327521,54.2943978 C240.327521,79.5542017 222.412255,100.703361 198.630042,105.736275 M239.579622,0.0710084034 L18.5495098,0.0710084034 C8.31911765,0.0710084034 -0.000210084034,8.38963585 -0.000210084034,18.6207283 L-0.000210084034,54.2943978 C-0.000210084034,93.1053221 31.5796218,124.685154 70.3912465,124.685154 L71.3555322,124.685154 C82.5257003,137.77619 98.1027311,146.990476 115.713375,150.136835 L115.713375,185.602521 C100.345028,191.068908 89.0102941,205.454762 89.0102941,222.518487 L89.0102941,222.596919 L71.2084734,222.596919 L71.2084734,249.3 L186.921359,249.3 L186.921359,222.596919 L169.119538,222.596919 L169.119538,222.518487 C169.119538,205.454762 157.784804,191.068908 142.416457,185.602521 L142.416457,150.136835 C160.027101,146.990476 175.603431,137.77619 186.773599,124.685154 L187.738585,124.685154 C226.54951,124.685154 258.130042,93.1053221 258.130042,54.2943978 L258.130042,18.6207283 C258.130042,8.38963585 249.810714,0.0710084034 239.579622,0.0710084034 M113.268697,49.1886555 L89.3464286,50.0822129 C85.9836835,50.2159664 83.0285014,52.4540616 81.9983894,55.6305322 C80.9409664,58.8434174 82.020098,62.4036415 84.6783613,64.4855742 L103.484384,79.2572829 L96.9528711,102.260084 C96.0306022,105.491176 97.2364846,108.998179 99.9689776,110.998179 C101.357633,112.005882 102.998389,112.538796 104.714076,112.538796 C106.32542,112.538796 107.882143,112.063305 109.203571,111.171849 L129.072619,97.8448179 L148.929762,111.17395 C150.263796,112.066807 151.817017,112.538796 153.422059,112.538796 C155.144748,112.538796 156.789006,112.002381 158.160154,110.998179 C160.895448,109.012885 162.111134,105.501681 161.187465,102.267087 L154.653151,79.2572829 L173.456373,64.4890756 C176.118137,62.4022409 177.196569,58.8420168 176.146849,55.6515406 C175.109734,52.4540616 172.154552,50.2159664 168.780602,50.0822129 L144.877941,49.1886555 L136.646148,26.7306723 C135.481583,23.5696078 132.438165,21.4456583 129.07402,21.4456583 C125.708473,21.4456583 122.665756,23.5696078 121.498389,26.7383754 L113.268697,49.1886555 M67.762395,112.494678 L63.9990896,103.790896 C60.2231793,95.0556022 58.3079132,85.7957983 58.3079132,76.2684874 L58.3079132,17.8728291 L58.3079132,12.9708683 L53.4059524,12.9708683 L18.5495098,12.9708683 C15.4346639,12.9708683 12.9003501,15.5058824 12.9003501,18.6207283 L12.9003501,54.2943978 C12.9003501,67.5352941 17.5327031,80.4687675 25.9444678,90.7117647 C34.2343838,100.806303 45.7911064,107.845518 58.485084,110.531793 L67.762395,112.494678 M190.367437,112.494678 L199.644748,110.531793 C212.338725,107.845518 223.895448,100.806303 232.185364,90.7117647 C240.597129,80.4687675 245.229482,67.5352941 245.229482,54.2943978 L245.229482,18.6207283 C245.229482,15.5058824 242.695168,12.9708683 239.579622,12.9708683 L204.72388,12.9708683 L199.821919,12.9708683 L199.821919,17.8728291 L199.821919,76.2684874 C199.821919,85.7957983 197.906653,95.0556022 194.130042,103.790896 L190.367437,112.494678 M239.579622,4.97296919 C247.105532,4.97296919 253.228081,11.0955182 253.228081,18.6207283 L253.228081,54.2943978 C253.228081,90.405042 223.84923,119.783193 187.738585,119.783193 L186.773599,119.783193 L184.512395,119.783193 L183.044608,121.503782 C172.40105,133.977871 157.665756,142.432353 141.554412,145.311204 L137.514496,146.033193 L137.514496,150.136835 L137.514496,185.602521 L137.514496,189.061204 L140.773599,190.220868 C154.796008,195.208964 164.217577,208.188655 164.217577,222.518487 L164.217577,222.596919 L164.217577,227.49888 L169.119538,227.49888 L182.019398,227.49888 L182.019398,244.398039 L76.1104342,244.398039 L76.1104342,227.49888 L89.0102941,227.49888 L93.9122549,227.49888 L93.9122549,222.596919 L93.9122549,222.518487 C93.9122549,208.188655 103.333824,195.208964 117.356232,190.220868 L120.615336,189.061204 L120.615336,185.602521 L120.615336,150.136835 L120.615336,146.033193 L116.57542,145.311204 C100.463375,142.432353 85.7287815,133.977871 75.0845238,121.503782 L73.617437,119.783193 L71.3555322,119.783193 L70.3912465,119.783193 C34.279902,119.783193 4.9017507,90.405042 4.9017507,54.2943978 L4.9017507,18.6207283 C4.9017507,11.0955182 11.0242997,4.97296919 18.5495098,4.97296919 L239.579622,4.97296919" id="Fill-11"></path>
                            </g>
                        </g>
                    </g>
                </g>
            </g>
        </g>
    </g>
</svg>