<?xml version="1.0" encoding="UTF-8"?>
<svg width="45px" height="44px" viewBox="0 0 45 44" version="1.1" xmlns="http://www.w3.org/2000/svg" xmlns:xlink="http://www.w3.org/1999/xlink">
    <!-- Generator: sketchtool 40 (33762) - http://www.bohemiancoding.com/sketch -->
    <title>54C419AD-77CD-4A20-A1C5-1C957EEF7874</title>
    <desc>Created with sketchtool.</desc>
    <defs>
        <polygon id="path-1" points="43.99483 0 0 0 0 43.994995 43.99483 43.994995 43.99483 7.81597009e-15"></polygon>
    </defs>
    <g id="Landing-Page" stroke="none" stroke-width="1" fill="none" fill-rule="evenodd">
        <g id="02_Landing_Page_Mobile" transform="translate(-291.000000, -5313.000000)">
            <g id="Footer" transform="translate(0.000000, 4737.000000)">
                <g id="Twitter" transform="translate(291.456790, 576.000000)">
                    <mask id="mask-2" fill="white">
                        <use xlink:href="#path-1"></use>
                    </mask>
                    <g id="Clip-2"></g>
                    <path d="M21.99758,-5.50000004e-05 C9.79418,-5.50000004e-05 -0.00022,9.871895 -0.00022,21.997745 C-0.00022,34.201145 9.87173,43.994995 21.99758,43.994995 C34.12343,43.994995 43.99483,34.123595 43.99483,21.997745 C43.99483,9.793795 34.20098,-5.50000004e-05 21.99758,-5.50000004e-05 M33.03498,18.188995 C33.34628,25.340095 27.98268,33.423995 18.49958,33.423995 C15.62363,33.423995 12.90333,32.568745 10.64888,31.091995 C13.36973,31.402745 16.09003,30.625595 18.18883,28.993195 C15.93438,28.915645 14.06878,27.438345 13.44728,25.417645 C14.22443,25.573295 15.00213,25.495195 15.77928,25.340095 C13.29163,24.873695 11.65923,22.619245 11.65923,20.287245 C12.35883,20.676095 13.13653,20.909295 13.99123,20.909295 C11.73733,19.354445 11.03773,16.400945 12.43693,14.068945 C14.92403,17.178095 18.73278,19.199345 22.93038,19.432545 C22.15323,16.245295 24.64033,13.136145 27.90513,13.136145 C29.38188,13.136145 30.70353,13.758195 31.63578,14.768545 C32.80178,14.535345 33.89023,14.147045 34.90058,13.524995 C34.51228,14.690995 33.73458,15.701345 32.64668,16.323395 C33.65703,16.167745 34.66738,15.934545 35.60018,15.545695 C34.90058,16.556595 34.04588,17.489395 33.03498,18.188995" id="Fill-1" fill="#FFFFFF" mask="url(#mask-2)"></path>
                </g>
            </g>
        </g>
    </g>
</svg>