<?xml version="1.0" encoding="UTF-8"?>
<svg width="332px" height="309px" viewBox="0 0 332 309" version="1.1" xmlns="http://www.w3.org/2000/svg" xmlns:xlink="http://www.w3.org/1999/xlink">
    <!-- Generator: sketchtool 40 (33762) - http://www.bohemiancoding.com/sketch -->
    <title>BC086CC8-A7E0-4A6A-842C-929683F2971D</title>
    <desc>Created with sketchtool.</desc>
    <defs>
        <filter x="-50%" y="-50%" width="200%" height="200%" filterUnits="objectBoundingBox" id="filter-1">
            <feOffset dx="0" dy="0" in="SourceAlpha" result="shadowOffsetOuter1"></feOffset>
            <feGaussianBlur stdDeviation="15" in="shadowOffsetOuter1" result="shadowBlurOuter1"></feGaussianBlur>
            <feColorMatrix values="0 0 0 0 0   0 0 0 0 0   0 0 0 0 0  0 0 0 0.203294837 0" type="matrix" in="shadowBlurOuter1" result="shadowMatrixOuter1"></feColorMatrix>
            <feMerge>
                <feMergeNode in="shadowMatrixOuter1"></feMergeNode>
                <feMergeNode in="SourceGraphic"></feMergeNode>
            </feMerge>
        </filter>
        <polygon id="path-2" points="1.13686838e-13 249.559783 271.999396 249.559783 271.999396 0 1.13686838e-13 0"></polygon>
    </defs>
    <g id="Landing-Page" stroke="none" stroke-width="1" fill="none" fill-rule="evenodd">
        <g id="01_Landing_Page_Desktop" transform="translate(-944.000000, -2307.000000)">
            <g id="How-it-Works" transform="translate(60.000000, 985.000000)">
                <g id="Verifying-Points" transform="translate(0.000000, 1351.000000)">
                    <g id="VerifyPoints" filter="url(#filter-1)" transform="translate(914.000000, 1.000000)">
                        <path d="M260.559541,90.6922101 L135.999758,90.6922101 L11.4774155,90.6922101 C11.7461353,89.8703502 11.9490338,89.1632246 12.2062802,88.4766304 C22.9931159,59.7115338 33.8035024,30.9548913 44.5299517,2.16745169 C45.1507246,0.501388889 45.9224638,0.0653985507 47.6247585,0.0672101449 C77.0830918,0.0907608696 106.541425,0.102838164 135.999758,0.1022343 C165.46413,0.1022343 194.929106,0.0901570048 224.393478,0.0653985507 C226.108454,0.0641908213 226.865097,0.524939614 227.480435,2.1759058 C238.209903,30.9627415 249.019082,59.7193841 259.807729,88.4838768 C260.048068,89.1239734 260.249758,89.7785628 260.559541,90.6922101 L260.559541,90.6922101 Z" id="Fill-1" fill="#757575"></path>
                        <mask id="mask-3" fill="white">
                            <use xlink:href="#path-2"></use>
                        </mask>
                        <g id="Clip-4"></g>
                        <path d="M90.7638889,147.294686 L113.178744,147.294686 L113.178744,124.878019 L90.7638889,124.878019 L90.7638889,147.294686 Z M56.7681159,147.326691 L79.2530193,147.326691 L79.2530193,124.911836 L56.7681159,124.911836 L56.7681159,147.326691 Z M22.7626812,147.290459 L45.2481884,147.290459 L45.2481884,124.881643 L22.7626812,124.881643 L22.7626812,147.290459 Z M271.999396,156.713768 C266.316425,153.633454 260.948671,149.971014 255.051932,147.655797 C227.278382,136.749396 201.679952,140.900966 178.61413,159.842391 C175.333333,162.536232 172.655193,165.958333 169.615942,168.960145 C169.029589,169.539251 168.059783,170.051932 167.2657,170.052536 C156.843599,170.062802 146.421498,170.071256 136,170.077899 C94.4933575,170.103865 52.986715,170.102657 11.4800725,170.089976 C4.90640097,170.088164 0.0314009662,165.197464 0.0193236715,158.618961 C-0.00724637681,143.638285 -0.00543478261,128.657609 0.0187198068,113.676932 C0.0289855072,107.210145 4.77596618,102.367754 11.2681159,102.106884 C11.7711353,102.086353 12.2753623,102.102053 12.7789855,102.102053 L136.01872,102.102053 L259.203502,102.102053 C267.478261,102.102053 271.998792,106.650362 271.999396,114.971618 L271.999396,155.004227 L271.999396,156.713768 Z" id="Fill-3" fill="#757575" mask="url(#mask-3)"></path>
                        <path d="M90.7862319,226.634058 L113.187802,226.634058 L113.187802,204.199879 L90.7862319,204.199879 L90.7862319,226.634058 Z M56.7675121,226.626812 L79.1823671,226.626812 L79.1823671,204.205918 L56.7675121,204.205918 L56.7675121,226.626812 Z M22.7699275,226.628019 L45.1847826,226.628019 L45.1847826,204.205314 L22.7699275,204.205314 L22.7699275,226.628019 Z M161.274758,181.431763 C150.270531,204.164251 150.235507,226.68901 161.227657,249.428744 L159.014493,249.428744 L136.018116,249.428744 C94.7771739,249.429348 53.535628,249.429348 12.294686,249.42814 C4.602657,249.427536 0.01147343,244.802536 0.0108695652,237.067029 C0.0102657005,222.527174 0.00664251208,207.987319 0.0126811594,193.447464 C0.0163043478,186.318237 4.83695652,181.440217 11.9601449,181.438406 C53.3061594,181.42814 94.6527778,181.430556 135.999396,181.431763 L159.623792,181.431763 L161.274758,181.431763 L161.274758,181.431763 Z" id="Fill-5" fill="#757575" mask="url(#mask-3)"></path>
                        <path d="M260.559541,90.8230676 L135.999758,90.8230676 L135.999758,0.233091787 C165.46413,0.233091787 194.929106,0.221014493 224.393478,0.196256039 C226.108454,0.195048309 226.865097,0.655797101 227.480435,2.30676329 C238.209903,31.093599 249.019082,59.8502415 259.807729,88.6141304 C260.048068,89.2548309 260.249758,89.9094203 260.559541,90.8230676" id="Fill-6" fill="#616161" mask="url(#mask-3)"></path>
                        <path d="M271.999155,156.844444 C266.316184,153.76413 260.94843,150.102295 255.051691,147.786473 C227.278744,136.880072 201.67971,141.031643 178.614493,159.973068 C175.333092,162.667512 172.655556,166.08901 169.616304,169.090821 C169.029952,169.669928 168.059541,170.182609 167.266063,170.183816 C156.843961,170.194082 146.42186,170.201932 135.999758,170.208575 L136.018478,102.232729 L259.203865,102.232729 C267.478623,102.233333 271.999155,106.781039 271.999155,115.102899 L271.999155,155.134903 L271.999155,156.844444 Z" id="Fill-7" fill="#616161" mask="url(#mask-3)"></path>
                        <path d="M161.274819,181.562802 C150.270592,204.29529 150.235568,226.820048 161.227717,249.559783 L159.014553,249.559783 L136.018176,249.559783 L135.999457,181.562198 C143.873853,181.562802 151.748853,181.562802 159.623853,181.562802 L161.274819,181.562802" id="Fill-8" fill="#616161" mask="url(#mask-3)"></path>
                        <path d="M224.401751,-6.03864737e-05 L224.393901,-6.03864737e-05 C194.734481,0.0246980676 165.07808,0.0367753623 135.418659,0.0367753623 C106.154771,0.0367753623 76.8884662,0.0253019324 47.6245773,0.00175120773 L47.6167271,0.00175120773 C45.9198671,0.00175120773 45.1499396,0.438949275 44.5297705,2.10199275 C33.8033213,30.8894324 22.9935386,59.6460749 12.206099,88.4111715 C11.9488527,89.0977657 11.746558,89.8048913 11.4778382,90.6267512 L260.55936,90.6267512 C260.249577,89.7131039 260.047886,89.0585145 259.807548,88.4184179 C249.019505,59.6539251 238.210326,30.8972826 227.480857,2.11044686 C226.866123,0.461896135 226.110688,-6.03864737e-05 224.401751,-6.03864737e-05 M223.758635,4.22759662 C232.211534,26.904529 240.850423,49.9262681 249.207307,72.1967995 L254.535809,86.3996981 L17.4754227,86.3996981 C19.3703502,81.346558 21.2664855,76.292814 23.1626208,71.2396739 C31.4011473,49.2825483 39.916244,26.5875 48.2483696,4.22940821 C77.2882246,4.25235507 106.6125,4.2638285 135.418659,4.2638285 C164.884843,4.2638285 194.602838,4.25175121 223.758635,4.22759662" id="Fill-9" fill="#0C0F1C" mask="url(#mask-3)"></path>
                        <path d="M56.7681159,147.261473 L79.2530193,147.261473 L79.2530193,124.846618 L56.7681159,124.846618 L56.7681159,147.261473 Z M22.7626812,147.225242 L45.2481884,147.225242 L45.2481884,124.816425 L22.7626812,124.816425 L22.7626812,147.225242 Z M90.7638889,147.229469 L113.178744,147.229469 L113.178744,124.812802 L90.7638889,124.812802 L90.7638889,147.229469 Z M11.8592995,102.030797 C11.6624396,102.030797 11.4649758,102.033213 11.2681159,102.041063 C4.77596618,102.302536 0.0289855072,107.144324 0.0187198068,113.611715 C-0.00543478261,128.592391 -0.00724637681,143.573068 0.0193236715,158.55314 C0.0314009662,165.132246 4.90640097,170.022947 11.4800725,170.024758 C29.089372,170.030193 46.6980676,170.033213 64.307971,170.033213 C98.6268116,170.033213 132.94686,170.021135 167.2657,169.987319 C168.059783,169.986715 169.029589,169.47343 169.615942,168.894324 C172.655797,165.892512 175.333333,162.471014 178.61413,159.77657 C193.300725,147.716184 209.01087,141.652174 225.658213,141.652778 C235.156401,141.653382 244.96256,143.628019 255.051932,147.589976 C260.948671,149.905797 266.316425,153.567633 271.999396,156.647947 L271.999396,154.938406 L271.999396,114.906401 C271.998792,106.585145 267.478261,102.036836 259.203502,102.036836 L135.990942,102.036836 L12.7789855,102.036836 C12.4722222,102.036836 12.1660628,102.030797 11.8592995,102.030797 L11.8592995,102.030797 Z M52.5410628,151.488527 L56.7681159,151.488527 L79.2530193,151.488527 L83.4800725,151.488527 L83.4800725,147.261473 L83.4800725,124.846618 L83.4800725,120.619565 L79.2530193,120.619565 L56.7681159,120.619565 L52.5410628,120.619565 L52.5410628,124.846618 L52.5410628,147.261473 L52.5410628,151.488527 L52.5410628,151.488527 Z M18.535628,151.452295 L22.7626812,151.452295 L45.2481884,151.452295 L49.4752415,151.452295 L49.4752415,147.225242 L49.4752415,124.816425 L49.4752415,120.589372 L45.2481884,120.589372 L22.7626812,120.589372 L18.535628,120.589372 L18.535628,124.816425 L18.535628,147.225242 L18.535628,151.452295 L18.535628,151.452295 Z M86.5368357,151.456522 L90.7638889,151.456522 L113.178744,151.456522 L117.405797,151.456522 L117.405797,147.229469 L117.405797,124.812802 L117.405797,120.585749 L113.178744,120.585749 L90.7638889,120.585749 L86.5368357,120.585749 L86.5368357,124.812802 L86.5368357,147.229469 L86.5368357,151.456522 L86.5368357,151.456522 Z M11.8592995,106.25785 C11.9993961,106.25785 12.1388889,106.259058 12.2789855,106.26087 C12.4456522,106.262077 12.6123188,106.263889 12.7789855,106.263889 L135.990942,106.263285 L259.203502,106.263889 C265.129227,106.263889 267.771739,108.929348 267.772343,114.906401 L267.772343,141.594807 L267.772343,149.357488 C264.222222,147.288043 260.548309,145.207126 256.596618,143.655797 C246.071256,139.522343 235.661836,137.426329 225.658213,137.425725 C208.083937,137.425121 191.353261,143.846014 175.931763,156.509662 C173.637077,158.39372 171.677536,160.524155 169.781401,162.583937 C168.754227,163.700483 167.780797,164.75785 166.772947,165.76087 C135.483092,165.791063 101.958937,165.806159 64.307971,165.806159 C46.6986715,165.806159 29.0905797,165.80314 11.4812802,165.797705 C7.2294686,165.796498 4.25422705,162.814614 4.24637681,158.545894 C4.22101449,144.236111 4.22101449,129.120169 4.24577295,113.618357 C4.25241546,109.458937 7.21014493,106.434783 11.4384058,106.265097 C11.5785024,106.259058 11.7192029,106.25785 11.8592995,106.25785 L11.8592995,106.25785 Z" id="Fill-10" fill="#0C0F1C" mask="url(#mask-3)"></path>
                        <path d="M56.7675121,226.561594 L79.1823671,226.561594 L79.1823671,204.1407 L56.7675121,204.1407 L56.7675121,226.561594 Z M22.7699275,226.562198 L45.1847826,226.562198 L45.1847826,204.139493 L22.7699275,204.139493 L22.7699275,226.562198 Z M90.7862319,226.568237 L113.187802,226.568237 L113.187802,204.134058 L90.7862319,204.134058 L90.7862319,226.568237 Z M87.9945652,181.365338 C62.6503623,181.365338 37.303744,181.366546 11.9601449,181.372585 C4.83695652,181.374396 0.0163043478,186.252415 0.0126811594,193.382246 C0.00664251208,207.922101 0.0108695652,222.461957 0.0108695652,237.001812 C0.01147343,244.737319 4.602657,249.362319 12.294686,249.362319 C36.544686,249.363527 60.7874396,249.363527 85.0380435,249.363527 L159.014493,249.363527 L161.227657,249.363527 C150.235507,226.623792 150.270531,204.099034 161.274758,181.366546 L159.623792,181.366546 C135.746377,181.366546 111.871981,181.365338 87.9945652,181.365338 L87.9945652,181.365338 Z M52.5404589,230.788647 L56.7675121,230.788647 L79.1823671,230.788647 L83.4094203,230.788647 L83.4094203,226.561594 L83.4094203,204.1407 L83.4094203,199.913647 L79.1823671,199.913647 L56.7675121,199.913647 L52.5404589,199.913647 L52.5404589,204.1407 L52.5404589,226.561594 L52.5404589,230.788647 L52.5404589,230.788647 Z M18.5428744,230.789855 L22.7699275,230.789855 L45.1847826,230.789855 L49.4118357,230.789855 L49.4118357,226.562802 L49.4118357,204.139493 L49.4118357,199.91244 L45.1847826,199.91244 L22.7699275,199.91244 L18.5428744,199.91244 L18.5428744,204.139493 L18.5428744,226.562802 L18.5428744,230.789855 L18.5428744,230.789855 Z M86.5591787,230.795894 L90.7862319,230.795894 L113.188406,230.795894 L117.415459,230.795894 L117.415459,226.568841 L117.415459,204.134058 L117.415459,199.907005 L113.188406,199.907005 L90.7862319,199.907005 L86.5591787,199.907005 L86.5591787,204.134058 L86.5591787,226.568841 L86.5591787,230.795894 L86.5591787,230.795894 Z M87.9945652,185.592391 L123.809179,185.592995 L154.783213,185.593599 C150.80314,195.507246 148.78442,205.493357 148.775362,215.358092 C148.766908,225.233696 150.770531,235.22343 154.741546,245.136473 L122.025966,245.136473 L85.0380435,245.136473 L12.294686,245.135266 C6.94927536,245.135266 4.23852657,242.398551 4.23792271,237.001208 L4.23731884,225.84058 C4.23611111,215.021739 4.23490338,204.202899 4.2397343,193.384058 C4.24214976,188.583937 7.20048309,185.600845 11.9607488,185.599638 C37.3043478,185.593599 62.6509662,185.592391 87.9945652,185.592391 L87.9945652,185.592391 Z" id="Fill-11" fill="#0C0F1C" mask="url(#mask-3)"></path>
                        <path d="M254.314674,177.073551 C259.887138,182.644203 265.12808,187.882729 270.262742,193.014976 C251.792935,211.482971 233.204771,230.069324 214.822524,248.450362 C204.380495,238.008333 193.775423,227.403865 183.349094,216.97814 C188.285085,212.043961 193.556824,206.774638 198.915519,201.417754 C203.854529,206.429227 209.091244,211.743237 214.333998,217.063285 C227.887138,203.507126 241.164915,190.226329 254.314674,177.073551" id="Fill-12" fill="#43A047" mask="url(#mask-3)"></path>
                        <path d="M254.314674,177.073551 C259.887138,182.644203 265.12808,187.882729 270.262742,193.014976 C251.792935,211.482971 233.204771,230.069324 214.822524,248.450362 L214.333998,217.063285 C227.887138,203.507126 241.164915,190.226329 254.314674,177.073551" id="Fill-13" fill="#2E7D32" mask="url(#mask-3)"></path>
                        <path d="M254.314674,177.073551 C241.164915,190.226329 227.887742,203.506522 214.333998,217.063285 C209.091244,211.743237 203.854529,206.429227 198.916123,201.417754 C193.556824,206.774638 188.285688,212.043961 183.349094,216.97814 C193.775423,227.403865 204.380495,238.008333 214.822524,248.450362 C233.204771,230.069324 251.792935,211.482971 270.262742,193.014976 C265.12808,187.882729 259.887138,182.644203 254.314674,177.073551 M254.315882,183.051208 L258.889553,187.623068 L264.283877,193.01558 L214.822524,242.472101 L202.786896,230.437077 L189.327959,216.978744 L194.910688,211.397826 L198.893176,207.41715 L211.323128,220.030072 L214.312258,223.063285 L217.323128,220.051812 L227.137742,210.235386 L254.315882,183.051208" id="Fill-14" fill="#0C0F1C" mask="url(#mask-3)"></path>
                    </g>
                </g>
            </g>
        </g>
    </g>
</svg>